<svg width="48" height="48" viewBox="0 0 48 48" fill="none" xmlns="http://www.w3.org/2000/svg">
<g clip-path="url(#clip0)">
<path d="M39.3126 33.0863C37.358 34.286 34.9738 35.2896 32.0658 35.9523L32.0657 35.9523C31.9755 35.9729 31.8854 35.9919 31.7966 36.0106C31.7904 36.012 31.7842 36.0133 31.778 36.0146C31.7764 36.0432 31.7748 36.077 31.7732 36.1156C31.7677 36.2498 31.7635 36.4413 31.7685 36.6687C31.7785 37.1247 31.8257 37.7199 31.9721 38.2875C32.1191 38.8579 32.3616 39.3817 32.7485 39.7156C33.1267 40.0421 33.663 40.2041 34.4441 40.0152C34.9304 39.8975 35.4204 39.5693 35.9036 39.0816C36.3856 38.5951 36.8511 37.9598 37.2894 37.2458C38.0807 35.9567 38.7748 34.4255 39.3126 33.0863Z" fill="#60B8FF" stroke="#3CA8FF" stroke-width="0.3"/>
<path d="M39.3125 33.0863C37.358 34.286 34.9738 35.2896 32.0658 35.9523L32.0657 35.9523C31.9755 35.9729 31.8854 35.9919 31.7966 36.0106C31.7905 36.0119 31.7845 36.0132 31.7784 36.0145C31.7766 36.0473 31.7747 36.087 31.7729 36.1329C31.7673 36.2777 31.7635 36.4835 31.7703 36.7264C31.7831 37.1764 31.8327 37.7481 31.9741 38.2934L39.3125 33.0863ZM39.3125 33.0863C38.9187 34.0667 38.4405 35.1507 37.902 36.1676C36.2319 37.0366 34.2807 37.7678 31.9992 38.2878L39.3125 33.0863Z" fill="#22A7FF" stroke="#22A7FF" stroke-width="0.3"/>
<path d="M7.94814 19.7222L8.10421 19.7056L8.11378 19.8622C8.37615 24.1581 10.4076 29.0066 14.3391 32.3303C18.2653 35.6495 24.1005 37.4598 31.9987 35.6601C39.8907 33.8615 43.8475 29.5365 45.8359 25.6685C46.8313 23.7322 47.3345 21.9076 47.5889 20.5675C47.716 19.8976 47.7808 19.3492 47.8139 18.969C47.8304 18.779 47.839 18.631 47.8434 18.531C47.8456 18.481 47.8468 18.443 47.8474 18.4177L47.848 18.3897L47.848 18.3894L47.8442 18.3598C47.8409 18.3334 47.8356 18.2939 47.8282 18.2422C47.8134 18.1387 47.7902 17.9865 47.7563 17.7924C47.6885 17.4042 47.5783 16.8487 47.4089 16.1819C47.0699 14.8476 46.4946 13.0703 45.5497 11.2945C43.6607 7.74457 40.3055 4.21645 34.4093 4.21645C30.8712 4.21645 28.3043 5.13308 26.3842 6.52002C24.4621 7.90836 23.177 9.77602 22.2173 11.6958C21.5211 13.0883 21.0004 14.4982 20.5299 15.772C20.3501 16.2587 20.1777 16.7254 20.0057 17.1638C19.6962 17.9524 19.3868 18.651 19.0376 19.1961C18.6889 19.7404 18.2899 20.1486 17.7936 20.3315C15.9376 21.0156 14.5017 20.6253 13.5312 20.0584C13.0481 19.7762 12.6818 19.4513 12.4362 19.1969C12.3133 19.0696 12.2203 18.9596 12.1575 18.8808C12.1261 18.8414 12.1023 18.8098 12.0861 18.7877C12.0819 18.7819 12.0781 18.7768 12.0749 18.7723C12.072 18.7682 12.0695 18.7648 12.0675 18.7618L12.0625 18.7547L12.061 18.7526L12.0606 18.7519L12.0604 18.7517C12.0604 18.7516 12.0603 18.7516 12.1844 18.6673L12.0603 18.7516L11.9888 18.6463L12.0809 18.5586L12.081 18.5586L12.0811 18.5585L12.0817 18.5579L12.0846 18.5551L12.0968 18.5432C12.1077 18.5326 12.124 18.5164 12.1453 18.495C12.1878 18.4522 12.2499 18.3882 12.3276 18.3045C12.483 18.1372 12.7004 17.8914 12.9469 17.5789C13.4404 16.9533 14.0485 16.0632 14.5107 15.0026C15.4014 12.959 15.7486 10.2931 13.6978 7.6481C13.6898 7.71528 13.68 7.79015 13.668 7.87154C13.6148 8.23332 13.5185 8.7263 13.3456 9.24974C13.002 10.2901 12.3439 11.486 11.0848 11.9736C10.0686 12.3673 9.4806 13.0862 9.14515 13.711C8.97732 14.0236 8.87341 14.3115 8.81159 14.5208C8.78071 14.6253 8.76042 14.7099 8.74795 14.7678C8.74171 14.7967 8.73744 14.8189 8.73478 14.8335L8.73194 14.8497L8.73135 14.8533L8.73127 14.8539L8.73125 14.854L8.73124 14.854L8.67838 15.2019L8.46409 14.9228L8.46407 14.9228L8.46399 14.9227L8.46367 14.9223L8.46127 14.9192L8.45031 14.9057C8.44027 14.8934 8.42477 14.875 8.40388 14.8513C8.36211 14.8041 8.29887 14.7361 8.21476 14.6556C8.04638 14.4944 7.79522 14.2838 7.46587 14.0881C6.80861 13.6975 5.84006 13.3657 4.58903 13.6038C3.44677 13.8214 2.26487 13.3098 1.38804 12.7676C0.946064 12.4943 0.573597 12.2083 0.311676 11.9907C0.274357 11.9597 0.239254 11.93 0.206493 11.902C0.246136 12.1452 0.309299 12.4858 0.404976 12.8901C0.602478 13.7247 0.937634 14.8272 1.48803 15.9046C2.03868 16.9824 2.80103 18.0278 3.84938 18.7577C4.89455 19.4854 6.23201 19.9053 7.94814 19.7222Z" fill="#8BCAFF" stroke="#54AFFB" stroke-width="0.3"/>
<path d="M0.731743 12.32C0.521553 12.1637 0.343651 12.0185 0.206738 11.9014C0.246376 12.1446 0.309555 12.4853 0.405273 12.8898C0.602776 13.7245 0.937931 14.827 1.48833 15.9043C2.03898 16.9822 2.80133 18.0276 3.84968 18.7575C4.89485 19.4852 6.23231 19.9051 7.94844 19.722L8.10451 19.7053L8.11407 19.862C8.37645 24.1579 10.4079 29.0063 14.3394 32.3301C18.2656 35.6492 24.1008 37.4596 31.999 35.6598C39.8911 33.8613 43.8478 29.5362 45.8362 25.6683C46.7401 23.9098 47.2382 22.2435 47.5126 20.9485C46.1688 25.412 41.8544 31.1839 32.0651 33.3245C24.6682 35.0098 19.0282 33.565 15.052 30.6455C11.0798 27.729 8.78257 23.3513 8.0468 19.1931C7.87817 18.2404 7.1267 17.5074 6.17437 17.3649C3.16948 16.9151 1.56646 14.448 0.731743 12.32Z" fill="#60B8FF" stroke="#42A9FD" stroke-width="0.3"/>
<path d="M13.2016 31.2715C17.1038 35.2452 23.3005 37.6417 31.9991 35.6599C39.8911 33.8613 43.8479 29.5363 45.8363 25.6683C46.8317 23.7319 47.3349 21.9074 47.5893 20.5673C47.6457 20.2699 47.6899 19.9964 47.7244 19.751C47.1991 21.7045 46.164 24.1731 44.1693 26.5188C41.771 29.3392 37.9922 31.9737 32.0658 33.3244L32.0324 33.1781L32.0658 33.3244C26.1836 34.6648 21.4127 34.0247 17.7033 32.2365C16.2537 32.0223 14.7586 31.6975 13.2016 31.2715Z" fill="#FFDCA7" stroke="#FFCA7A" stroke-width="0.3"/>
<path d="M13.2018 31.2713C17.104 35.2449 23.3011 37.6417 31.9991 35.6595C39.8912 33.8611 43.848 29.5362 45.8363 25.6683C46.8317 23.7319 47.335 21.9074 47.5893 20.5673C47.7164 19.8974 47.7813 19.349 47.8143 18.9688C47.8177 18.9295 47.8208 18.892 47.8236 18.8563C47.7881 18.8996 47.7495 18.9457 47.708 18.9944C47.4399 19.3085 47.0466 19.7272 46.5451 20.1462C45.5443 20.9823 44.0991 21.8306 42.3506 21.8306V21.8306L42.3466 21.8305C39.905 21.766 37.7377 21.3239 36.4535 19.9884C36.4662 20.2241 36.4745 20.5409 36.4638 20.9198C36.4396 21.7733 36.3182 22.9441 35.929 24.213C35.1494 26.7555 33.2949 29.6874 29.0153 31.2439C24.0491 33.0503 19.0639 32.8768 13.2018 31.2713Z" fill="#FFE9C8" stroke="#FFD699" stroke-width="0.3"/>
<path d="M33.6832 27.6388C34.1011 36.8813 25.6733 43.3571 23.3949 41.8533C21.5677 40.6477 26.1306 35.5863 24.9594 30.0041" fill="#8BCAFF"/>
<path d="M33.1612 31.629C31.9076 34.2439 30.1153 36.3465 28.3744 37.732C27.3721 38.5297 26.3814 39.0939 25.5148 39.3792C24.7012 39.647 23.9661 39.6782 23.4398 39.3839C23.2508 39.9563 23.1256 40.4413 23.1095 40.8331C23.0919 41.2599 23.2035 41.5473 23.4775 41.7281L23.4775 41.7281C23.9226 42.0219 24.6802 41.9842 25.6339 41.5791C26.5759 41.179 27.6642 40.438 28.728 39.4097C30.6101 37.5904 32.399 34.8877 33.1612 31.629Z" fill="#60B8FF" stroke="#38A6FF" stroke-width="0.3"/>
<path d="M37.036 14.0281C37.036 15.0634 36.3857 15.8744 35.5559 15.8744C34.7258 15.8744 34.0758 15.0634 34.0758 14.0281C34.0758 12.9928 34.7258 12.1818 35.5559 12.1818C36.3857 12.1814 37.036 12.9928 37.036 14.0281Z" fill="#2D2B2B"/>
</g>
<defs>
<clipPath id="clip0">
<rect width="48" height="48" fill="white" transform="matrix(-1 0 0 1 48 0)"/>
</clipPath>
</defs>
</svg>
