<svg width="48" height="48" viewBox="0 0 48 48" fill="none" xmlns="http://www.w3.org/2000/svg">
<g clip-path="url(#clip0)">
<g filter="url(#filter0_d)">
<path d="M2.15 11.3278L44.975 16.6385V36.253C44.975 36.656 44.7762 37.0569 44.3783 37.2866L44.4481 37.4075L44.3783 37.2866L29.4687 45.8947C28.6222 46.3834 27.5793 46.3835 26.7328 45.8948C26.7327 45.8948 26.7326 45.8947 26.7326 45.8947L2.74712 31.939L2.74668 31.9388C2.34871 31.709 2.14992 31.3082 2.15 30.9052V30.9052V11.3278Z" fill="url(#paint0_linear)" stroke="#2D7DD2" stroke-width="0.3"/>
<path d="M44.378 15.4722L44.3784 15.4725C45.1741 15.9319 45.1741 17.0801 44.3784 17.5395L29.4688 26.1475C28.6223 26.6362 27.5795 26.6363 26.733 26.1477C26.7329 26.1476 26.7328 26.1476 26.7327 26.1475L2.74735 12.1919L2.74691 12.1916C1.95136 11.7323 1.95136 10.584 2.74691 10.1246L17.6565 1.51659L17.5926 1.40587L17.6566 1.51659C18.503 1.02787 19.5458 1.02781 20.3922 1.51639C20.3923 1.51645 20.3924 1.51652 20.3926 1.51658L44.378 15.4722Z" fill="url(#paint1_linear)" stroke="#2D7DD2" stroke-width="0.3"/>
<path d="M2.88196 10.3547L2.88299 10.3541L17.9599 1.66273C17.9601 1.66263 17.9603 1.66253 17.9605 1.66243C18.7777 1.20018 19.6156 1.35496 20.4724 1.83977C20.4726 1.83988 20.4728 1.84 20.473 1.84011L44.0643 15.4983L44.0656 15.499C44.4702 15.728 44.7036 16.0949 44.7422 16.449C44.7801 16.7969 44.6326 17.1461 44.243 17.3665L44.2416 17.3674L29.8756 25.7032C29.8752 25.7034 29.8748 25.7036 29.8744 25.7039C29.0876 26.1408 28.5367 26.2966 28.0851 26.2927C27.6358 26.2889 27.2642 26.1272 26.83 25.8815C26.8298 25.8814 26.8296 25.8813 26.8293 25.8812L3.05419 12.0918L3.05419 12.0918L3.05282 12.091C2.64218 11.8586 2.41552 11.5217 2.37947 11.2059C2.34444 10.8989 2.48541 10.5792 2.88196 10.3547Z" stroke="white" stroke-opacity="0.3" stroke-width="0.3"/>
<path d="M16.3209 38.3855L15.5633 37.9481C15.4859 37.9035 15.4383 37.8209 15.4383 37.7316V21.8989C15.4383 21.7064 15.6466 21.5861 15.8133 21.6824L16.5708 22.1198C16.6482 22.1644 16.6958 22.2469 16.6958 22.3363V38.169C16.6958 38.3614 16.4875 38.4817 16.3209 38.3855Z" fill="#60B5FC" stroke="#2D7DD2" stroke-width="0.3"/>
<path d="M24.7836 43.127V27.2943C24.7836 27.1018 24.9919 26.9815 25.1586 27.0778L26.0804 27.61C26.1577 27.6546 26.2054 27.7371 26.2054 27.8265V43.6592C26.2054 43.8517 25.997 43.972 25.8304 43.8757L24.9086 43.3435C24.8312 43.2989 24.7836 43.2163 24.7836 43.127Z" fill="#60B5FC" stroke="#2D7DD2" stroke-width="0.3"/>
<path d="M18.5533 39.5301V23.6973C18.5533 23.5049 18.7617 23.3846 18.9283 23.4808L19.6859 23.9182C19.7632 23.9629 19.8109 24.0454 19.8109 24.1347V39.9675C19.8109 40.1599 19.6025 40.2802 19.4359 40.184L18.6783 39.7466C18.601 39.7019 18.5533 39.6194 18.5533 39.5301Z" fill="#60B5FC" stroke="#2D7DD2" stroke-width="0.3"/>
<path d="M13.2057 36.587L12.4482 36.1496C12.3708 36.105 12.3232 36.0224 12.3232 35.9331V20.1004C12.3232 19.9079 12.5315 19.7876 12.6982 19.8839L13.4557 20.3212C13.5331 20.3659 13.5807 20.4484 13.5807 20.5377V36.3705C13.5807 36.5629 13.3724 36.6832 13.2057 36.587Z" fill="#60B5FC" stroke="#2D7DD2" stroke-width="0.3"/>
<path d="M21.6684 41.3285V25.4958C21.6684 25.3034 21.8768 25.1831 22.0434 25.2793L22.801 25.7167C22.8783 25.7613 22.926 25.8438 22.926 25.9332V41.7659C22.926 41.9584 22.7177 42.0786 22.551 41.9824L21.7934 41.545C21.7161 41.5004 21.6684 41.4178 21.6684 41.3285Z" fill="#60B5FC" stroke="#2D7DD2" stroke-width="0.3"/>
<path d="M9.65565 18.1271L10.3407 18.5227C10.418 18.5673 10.4657 18.6498 10.4657 18.7392V34.572C10.4657 34.7645 10.2573 34.8847 10.0906 34.7885L9.40564 34.393C9.32829 34.3483 9.28065 34.2658 9.28065 34.1765V18.3437C9.28065 18.1512 9.48898 18.0309 9.65565 18.1271Z" fill="#60B5FC" stroke="#2D7DD2" stroke-width="0.3"/>
<path d="M3.44835 14.5218L4.13344 14.9174C4.21079 14.962 4.25844 15.0446 4.25844 15.1339V30.9666C4.25844 31.1591 4.05011 31.2794 3.88344 31.1831L3.19835 30.7876C3.121 30.743 3.07335 30.6604 3.07335 30.5711V14.7383C3.07335 14.5459 3.28168 14.4256 3.44835 14.5218Z" fill="#60B5FC" stroke="#2D7DD2" stroke-width="0.3"/>
<path d="M6.97561 32.94L6.21805 32.5026C6.1407 32.4579 6.09305 32.3754 6.09305 32.2861V16.4533C6.09305 16.2609 6.30139 16.1406 6.46806 16.2368L7.22561 16.6742C7.30296 16.7189 7.35061 16.8014 7.35061 16.8907V32.7235C7.35061 32.9159 7.14228 33.0362 6.97561 32.94Z" fill="#60B5FC" stroke="#2D7DD2" stroke-width="0.3"/>
<path d="M3.42551 14.4802L4.11051 14.8757C4.18786 14.9203 4.23551 15.0029 4.23551 15.0922V30.925C4.23551 31.1175 4.02717 31.2377 3.86051 31.1415L3.1755 30.746C3.09815 30.7014 3.05051 30.6188 3.05051 30.5295V14.6967C3.05051 14.5042 3.25884 14.3839 3.42551 14.4802Z" fill="#60B5FC" stroke="#2D7DD2" stroke-width="0.3"/>
<path d="M30.1126 27.581L36.1872 24.0596C36.4206 23.9243 36.7128 24.0927 36.7128 24.3624V39.963C36.7128 40.0879 36.6463 40.2033 36.5383 40.2659L30.4636 43.7871C30.2303 43.9224 29.9381 43.754 29.9381 43.4843V27.8838C29.9381 27.7589 30.0046 27.6436 30.1126 27.581Z" fill="#3D90E9" stroke="#2D7DD2" stroke-width="0.3"/>
<path d="M37.6851 38.9959V23.3942C37.6851 23.2692 37.7518 23.1537 37.86 23.0912L43.2624 19.9707C43.4957 19.8359 43.7875 20.0043 43.7875 20.2738V35.8754C43.7875 36.0005 43.7208 36.116 43.6125 36.1785L38.2101 39.299C37.9768 39.4338 37.6851 39.2654 37.6851 38.9959Z" fill="#3D90E9" stroke="#2D7DD2" stroke-width="0.3"/>
<path d="M35.7772 33.6462L35.7772 33.6462L38.7022 31.9574C38.7022 31.9574 38.7022 31.9574 38.7022 31.9574C38.8818 31.8538 39.0324 31.6715 39.1375 31.4708C39.2432 31.2688 39.3109 31.0327 39.3109 30.8079C39.3109 30.5866 39.2439 30.3879 39.0951 30.2754C38.9368 30.1558 38.7353 30.1689 38.5523 30.2746L38.5522 30.2746L35.6272 31.9634L35.6272 31.9634C35.4477 32.0671 35.297 32.2493 35.1919 32.45C35.0862 32.652 35.0185 32.8881 35.0185 33.1129C35.0185 33.3342 35.0856 33.5329 35.2344 33.6454C35.3926 33.765 35.5941 33.7519 35.7772 33.6462Z" fill="#E6E6E8" stroke="#C8C8C8" stroke-width="0.3"/>
</g>
</g>
<defs>
<filter id="filter0_d" x="-1" y="-1" width="49.1252" height="51.4113" filterUnits="userSpaceOnUse" color-interpolation-filters="sRGB">
<feFlood flood-opacity="0" result="BackgroundImageFix"/>
<feColorMatrix in="SourceAlpha" type="matrix" values="0 0 0 0 0 0 0 0 0 0 0 0 0 0 0 0 0 0 127 0"/>
<feOffset dy="1"/>
<feGaussianBlur stdDeviation="1.5"/>
<feColorMatrix type="matrix" values="0 0 0 0 0 0 0 0 0 0 0 0 0 0 0 0 0 0 0.2 0"/>
<feBlend mode="normal" in2="BackgroundImageFix" result="effect1_dropShadow"/>
<feBlend mode="normal" in="SourceGraphic" in2="effect1_dropShadow" result="shape"/>
</filter>
<linearGradient id="paint0_linear" x1="26.6808" y1="28.7847" x2="30.9347" y2="28.7847" gradientUnits="userSpaceOnUse">
<stop stop-color="#3D90E9"/>
<stop offset="1" stop-color="#5FB4FC"/>
</linearGradient>
<linearGradient id="paint1_linear" x1="23.5627" y1="1" x2="23.5627" y2="26.6641" gradientUnits="userSpaceOnUse">
<stop stop-color="#B4DDFF"/>
<stop offset="1" stop-color="#5CB6FF"/>
</linearGradient>
<clipPath id="clip0">
<rect width="48" height="48" fill="white"/>
</clipPath>
</defs>
</svg>
