<svg width="24" height="24" viewBox="0 0 24 24" fill="none" xmlns="http://www.w3.org/2000/svg">
<g clip-path="url(#clip0)">
<path d="M19.5182 16.5849C18.5507 17.1667 17.3765 17.6531 15.9519 17.9766L15.9519 17.9766C15.9099 17.9861 15.8679 17.995 15.8265 18.0037C15.826 18.0131 15.8256 18.0233 15.8251 18.0343C15.8224 18.1008 15.8203 18.1956 15.8228 18.3083C15.8278 18.5344 15.8513 18.8288 15.9238 19.109C15.9967 19.3909 16.1162 19.646 16.304 19.8076L19.5182 16.5849ZM19.5182 16.5849C19.2538 17.2342 18.9178 17.9649 18.537 18.583C18.3184 18.9378 18.0869 19.2525 17.8477 19.493C17.6078 19.7343 17.3667 19.8944 17.1298 19.9515L19.5182 16.5849Z" fill="#60B8FF" stroke="#3CA8FF" stroke-width="0.2"/>
<path d="M19.5182 16.5849C18.5506 17.1668 17.3765 17.6531 15.9519 17.9766L15.9519 17.9766C15.91 17.9861 15.868 17.995 15.8267 18.0037C15.8261 18.0155 15.8255 18.0286 15.825 18.0429C15.8222 18.1146 15.8203 18.2165 15.8237 18.3368C15.8299 18.5536 15.8533 18.8264 15.9188 19.0883C17.0497 18.8306 18.0174 18.4692 18.8462 18.0403C19.1006 17.5609 19.328 17.0517 19.5182 16.5849Z" fill="#22A7FF" stroke="#22A7FF" stroke-width="0.2"/>
<path d="M3.88498 9.841L3.98896 9.82995L3.99536 9.93432C4.12616 12.0683 5.13909 14.477 7.09908 16.128C9.05553 17.7761 11.9649 18.6768 15.9074 17.7817C19.8457 16.8874 21.8182 14.7378 22.8093 12.8169C23.3056 11.8548 23.5566 10.9483 23.6834 10.2825C23.7468 9.94966 23.7791 9.67731 23.7955 9.48868C23.8037 9.39437 23.808 9.32102 23.8102 9.27154C23.8113 9.2468 23.8119 9.22803 23.8122 9.21559L23.8124 9.2036L23.8108 9.19062C23.8091 9.17758 23.8065 9.15803 23.8028 9.13239C23.7955 9.08111 23.7839 9.00553 23.767 8.90911C23.7332 8.71624 23.6782 8.44017 23.5937 8.10865C23.4246 7.44521 23.1376 6.56183 22.6664 5.67948C21.7245 3.91584 20.0539 2.16645 17.1181 2.16645C15.3537 2.16645 14.0754 2.62184 13.1201 3.3094C12.1635 3.99788 11.5232 4.9245 11.0444 5.87881C10.697 6.57118 10.4374 7.27151 10.2023 7.90577C10.1123 8.14853 10.0259 8.38161 9.93958 8.60086C9.78471 8.99403 9.62928 9.34404 9.45326 9.61779C9.27757 9.89106 9.07429 10.0996 8.81886 10.1934C7.88302 10.5371 7.15736 10.3411 6.66664 10.0555C6.42266 9.91351 6.23778 9.75009 6.11378 9.62212C6.0517 9.55806 6.00464 9.50264 5.97283 9.46284C5.95692 9.44293 5.9448 9.4269 5.93651 9.41563L5.92693 9.40238L5.92429 9.39862L5.92352 9.3975L5.92326 9.39713L5.92317 9.39699C5.92313 9.39694 5.9231 9.39689 6.00572 9.34055L5.9231 9.39689L5.87515 9.32658L5.93686 9.26803L5.93689 9.268L5.93691 9.26799L5.9372 9.26771L5.9386 9.26637L5.94457 9.26058L5.96853 9.23682C5.9896 9.21565 6.02047 9.18397 6.05911 9.14251C6.13641 9.05957 6.24465 8.93762 6.36744 8.78253C6.61331 8.47197 6.91603 8.03041 7.14601 7.50461C7.5834 6.50462 7.75659 5.20691 6.77954 3.91438C6.77731 3.93089 6.77489 3.94807 6.77226 3.96587C6.7455 4.14713 6.69703 4.39424 6.61001 4.65679C6.43738 5.17759 6.10493 5.7824 5.46483 6.0294C4.96371 6.22285 4.67374 6.57594 4.50805 6.88345C4.42513 7.03734 4.37379 7.17909 4.34326 7.28203C4.32802 7.33344 4.31803 7.37497 4.31192 7.40323C4.30886 7.41736 4.30678 7.42815 4.30549 7.43519L4.30414 7.44286L4.30387 7.44448L4.30386 7.44457L4.30385 7.44464L4.30384 7.44469L4.30384 7.44472L4.26859 7.67585L4.1259 7.49067L4.12588 7.49064L4.12584 7.4906L4.12579 7.49053L4.12575 7.49048L4.12468 7.48913L4.11947 7.48271C4.11463 7.47683 4.10707 7.46787 4.09684 7.45634C4.07637 7.43325 4.04524 7.3999 4.00374 7.36031C3.92064 7.28106 3.79656 7.17738 3.63382 7.08101C3.30929 6.88884 2.8311 6.72548 2.21265 6.8428C1.63207 6.95301 1.03426 6.69385 0.594536 6.42294C0.372311 6.28602 0.185122 6.14278 0.0535259 6.03384C0.0532932 6.03365 0.0530624 6.03346 0.0528297 6.03327C0.0726166 6.14642 0.100939 6.29064 0.140324 6.45648C0.238777 6.87104 0.405762 7.4182 0.679739 7.95256C0.953873 8.48722 1.33265 9.00425 1.85236 9.36479C2.36997 9.72386 3.03274 9.93159 3.88498 9.841Z" fill="#8BCAFF" stroke="#54AFFB" stroke-width="0.2"/>
<path d="M0.258858 6.19442C0.180574 6.13625 0.111341 6.08125 0.0529728 6.03294C0.0727615 6.14613 0.101095 6.29041 0.140503 6.45635C0.238956 6.87091 0.405943 7.41807 0.679918 7.95243C0.954054 8.48709 1.33283 9.00412 1.85254 9.36466C2.37015 9.72374 3.03292 9.93147 3.88516 9.84088L3.95557 9.83339C3.94013 9.75781 3.92572 9.68233 3.91234 9.607C3.82995 9.14317 3.46278 8.78613 2.99709 8.71669L3.00899 8.63684L2.99709 8.71669C1.48435 8.49109 0.678043 7.25583 0.258858 6.19442ZM7.42491 15.3286C5.57592 13.9759 4.45093 11.9945 4.00393 10.0558C4.16508 12.1592 5.17641 14.5082 7.09926 16.1279C9.05571 17.7759 11.9651 18.6767 15.9076 17.7816C19.8459 16.8873 21.8184 14.7377 22.8094 12.8168C23.1479 12.1607 23.3723 11.5304 23.521 10.9847C22.6872 13.1298 20.4951 15.6775 15.9514 16.6674C12.247 17.5084 9.41949 16.7878 7.42491 15.3286Z" fill="#60B8FF" stroke="#42A9FD" stroke-width="0.2"/>
<path d="M6.59862 15.6689C8.54681 17.6019 11.6152 18.756 15.9076 17.7816C19.8459 16.8873 21.8185 14.7377 22.8095 12.8168C23.3058 11.8547 23.5568 10.9482 23.6836 10.2824C23.6839 10.2807 23.6842 10.279 23.6846 10.2773C23.3944 11.1806 22.8882 12.2479 22.0171 13.2687C20.8142 14.6782 18.92 15.9934 15.9519 16.6674L15.934 16.5885L15.9519 16.6674C13.008 17.3358 10.6178 17.0176 8.75785 16.1252C8.06135 16.0225 7.344 15.869 6.59862 15.6689Z" fill="#FFDCA7" stroke="#FFCA7A" stroke-width="0.2"/>
<path d="M6.59877 15.6689C8.54698 17.6018 11.6155 18.756 15.9076 17.7814C19.8459 16.8872 21.8185 14.7376 22.8095 12.8168C23.3058 11.8547 23.5568 10.9482 23.6836 10.2824C23.7445 9.96282 23.7767 9.69901 23.7937 9.51152C23.7913 9.51435 23.7889 9.51719 23.7864 9.52005C23.6517 9.67734 23.454 9.887 23.202 10.0968C22.6992 10.5153 21.9711 10.9418 21.0888 10.9418L21.0862 10.9417C19.8935 10.9103 18.8228 10.6996 18.1683 10.0626C18.1728 10.1715 18.1749 10.3069 18.1704 10.4635C18.1582 10.8904 18.0973 11.476 17.9019 12.1109C17.5101 13.3839 16.578 14.8515 14.4296 15.63C11.966 16.5229 9.49379 16.4467 6.59877 15.6689Z" fill="#FFE9C8" stroke="#FFD699" stroke-width="0.2"/>
<path d="M16.7551 13.8102C16.9641 18.4148 12.7502 21.641 11.611 20.8918C10.6974 20.2912 12.9788 17.7696 12.3932 14.9885" fill="#8BCAFF"/>
<path d="M16.4134 16.0167C15.7919 17.2269 14.9426 18.2031 14.1161 18.8585C13.6134 19.2571 13.1155 19.54 12.6786 19.6832C12.2827 19.8131 11.9177 19.8341 11.6478 19.6978C11.5587 19.9701 11.5009 20.1994 11.4932 20.3846C11.4846 20.592 11.5388 20.7248 11.6659 20.8083L11.6659 20.8083C11.8774 20.9474 12.2455 20.9331 12.7208 20.7319C13.1883 20.534 13.73 20.1669 14.2603 19.6561C15.1546 18.7947 16.0067 17.5344 16.4134 16.0167Z" fill="#60B8FF" stroke="#38A6FF" stroke-width="0.2"/>
<path d="M18.4316 7.02934C18.4316 7.54513 18.1064 7.94916 17.6915 7.94916C17.2765 7.94916 16.9515 7.54513 16.9515 7.02934C16.9515 6.51355 17.2765 6.10951 17.6915 6.10951C18.1064 6.10932 18.4316 6.51355 18.4316 7.02934Z" fill="#2D2B2B"/>
</g>
<defs>
<clipPath id="clip0">
<rect width="24" height="24" fill="white" transform="matrix(-1 0 0 1 24 0)"/>
</clipPath>
</defs>
</svg>
