<svg width="24" height="24" viewBox="0 0 24 24" fill="none" xmlns="http://www.w3.org/2000/svg">
<g clip-path="url(#clip0)">
<g filter="url(#filter0_d)">
<path d="M1.075 5.66392L22.4875 8.31926V18.1265C22.4875 18.328 22.3881 18.5285 22.1892 18.6433L22.2241 18.7037L22.1891 18.6433L14.7343 22.9473C14.3111 23.1917 13.7897 23.1917 13.3664 22.9474C13.3664 22.9474 13.3663 22.9474 13.3663 22.9473L1.37356 15.9695L1.37334 15.9694C1.17435 15.8545 1.07496 15.6541 1.075 15.4526V15.4526V5.66392Z" fill="url(#paint0_linear)" stroke="#2D7DD2" stroke-width="0.15"/>
<path d="M8.79089 0.693342L8.82839 0.758294L1.37357 5.0623C0.9758 5.29198 0.9758 5.86613 1.37358 6.0958L1.37379 6.09593L13.3665 13.0738L8.79089 0.693342ZM8.79089 0.693342L8.82839 0.758293C9.25162 0.513935 9.77302 0.513904 10.1962 0.758191C10.1963 0.758225 10.1963 0.758258 10.1964 0.758292L22.1891 7.73613L22.1893 7.73625M8.79089 0.693342L22.1893 7.73625M22.1893 7.73625C22.5872 7.96593 22.5872 8.54007 22.1893 8.76975M22.1893 7.73625V8.76975M22.1893 8.76975L14.7345 13.0738M22.1893 8.76975L14.7345 13.0738M14.7345 13.0738C14.3113 13.3181 13.7899 13.3181 13.3667 13.0739L14.7345 13.0738Z" fill="url(#paint1_linear)" stroke="#2D7DD2" stroke-width="0.15"/>
<path d="M1.44099 5.17737L1.4415 5.17707L8.97998 0.831364C8.98007 0.831314 8.98015 0.831264 8.98024 0.831214C9.38887 0.600089 9.8078 0.677482 10.2362 0.919883C10.2363 0.91994 10.2364 0.919997 10.2365 0.920054L22.0322 7.74913L22.0328 7.74949C22.2351 7.86398 22.3518 8.04745 22.3711 8.22451C22.3901 8.39846 22.3163 8.57304 22.1215 8.68327L22.1208 8.68368L14.9378 12.8516C14.9376 12.8517 14.9374 12.8518 14.9372 12.8519C14.5438 13.0704 14.2683 13.1483 14.0426 13.1464C13.8179 13.1445 13.6321 13.0636 13.415 12.9408C13.4149 12.9407 13.4148 12.9407 13.4147 12.9406L1.5271 6.04591L1.5271 6.04591L1.52642 6.04552C1.3211 5.92931 1.20777 5.76086 1.18974 5.60294C1.17223 5.44946 1.24272 5.28958 1.44099 5.17737Z" stroke="white" stroke-opacity="0.3" stroke-width="0.15"/>
<path d="M8.16043 19.1927L7.78165 18.9741C7.74298 18.9517 7.71915 18.9105 7.71915 18.8658V10.9494C7.71915 10.8532 7.82332 10.7931 7.90665 10.8412L8.28543 11.0599C8.3241 11.0822 8.34793 11.1235 8.34793 11.1681V19.0845C8.34793 19.1807 8.24377 19.2408 8.16043 19.1927Z" fill="#60B5FC" stroke="#2D7DD2" stroke-width="0.15"/>
<path d="M12.3918 21.5636V13.6472C12.3918 13.551 12.496 13.4908 12.5793 13.5389L13.0402 13.805C13.0789 13.8274 13.1027 13.8686 13.1027 13.9133V21.8297C13.1027 21.9259 12.9985 21.986 12.9152 21.9379L12.4543 21.6718C12.4156 21.6495 12.3918 21.6082 12.3918 21.5636Z" fill="#60B5FC" stroke="#2D7DD2" stroke-width="0.15"/>
<path d="M9.27666 19.765V11.8487C9.27666 11.7524 9.38083 11.6923 9.46416 11.7404L9.84294 11.9591C9.88161 11.9814 9.90544 12.0227 9.90544 12.0674V19.9837C9.90544 20.08 9.80127 20.1401 9.71794 20.092L9.33916 19.8733C9.30048 19.851 9.27666 19.8097 9.27666 19.765Z" fill="#60B5FC" stroke="#2D7DD2" stroke-width="0.15"/>
<path d="M6.60287 18.2935L6.22409 18.0748C6.18542 18.0525 6.16159 18.0112 6.16159 17.9666V10.0502C6.16159 9.95398 6.26576 9.89384 6.34909 9.94196L6.72787 10.1606C6.76655 10.183 6.79037 10.2242 6.79037 10.2689V18.1853C6.79037 18.2815 6.6862 18.3416 6.60287 18.2935Z" fill="#60B5FC" stroke="#2D7DD2" stroke-width="0.15"/>
<path d="M10.8342 20.6643V12.7479C10.8342 12.6517 10.9384 12.5916 11.0217 12.6397L11.4005 12.8584C11.4392 12.8807 11.463 12.922 11.463 12.9666V20.883C11.463 20.9792 11.3588 21.0394 11.2755 20.9912L10.8967 20.7725C10.858 20.7502 10.8342 20.709 10.8342 20.6643Z" fill="#60B5FC" stroke="#2D7DD2" stroke-width="0.15"/>
<path d="M4.82782 9.06361L5.17033 9.26136C5.209 9.28369 5.23283 9.32495 5.23283 9.36961V17.286C5.23283 17.3823 5.12866 17.4424 5.04532 17.3943L4.70282 17.1965C4.66415 17.1742 4.64032 17.1329 4.64032 17.0883V9.17186C4.64032 9.07563 4.74449 9.01549 4.82782 9.06361Z" fill="#60B5FC" stroke="#2D7DD2" stroke-width="0.15"/>
<path d="M1.72418 7.26092L2.06673 7.45869C2.10541 7.48101 2.12923 7.52228 2.12923 7.56694V15.4833C2.12923 15.5795 2.02507 15.6397 1.94173 15.5916L1.59919 15.3938C1.56051 15.3715 1.53669 15.3302 1.53669 15.2856V7.36917C1.53669 7.27295 1.64085 7.21281 1.72418 7.26092Z" fill="#60B5FC" stroke="#2D7DD2" stroke-width="0.15"/>
<path d="M3.4878 16.47L3.10903 16.2513C3.07035 16.229 3.04653 16.1878 3.04653 16.1431V8.22672C3.04653 8.1305 3.15069 8.07036 3.23403 8.11847L3.61281 8.33716C3.65148 8.35949 3.67531 8.40075 3.67531 8.44541V16.3618C3.67531 16.458 3.57114 16.5182 3.4878 16.47Z" fill="#60B5FC" stroke="#2D7DD2" stroke-width="0.15"/>
<path d="M1.71276 7.24012L2.05526 7.43787C2.09393 7.4602 2.11776 7.50147 2.11776 7.54612V15.4625C2.11776 15.5588 2.01359 15.6189 1.93026 15.5708L1.58775 15.373C1.54908 15.3507 1.52526 15.3094 1.52526 15.2648V7.34837C1.52526 7.25214 1.62943 7.192 1.71276 7.24012Z" fill="#60B5FC" stroke="#2D7DD2" stroke-width="0.15"/>
<path d="M15.0812 13.776L18.0185 12.0733C18.1685 11.9863 18.3564 12.0945 18.3564 12.2679V19.9527C18.3564 20.0329 18.3136 20.1071 18.2442 20.1473L15.3069 21.85C15.1569 21.9369 14.969 21.8287 14.969 21.6553V13.9706C14.969 13.8904 15.0118 13.8162 15.0812 13.776Z" fill="#3D90E9" stroke="#2D7DD2" stroke-width="0.15"/>
<path d="M18.8425 19.4113V11.726C18.8425 11.6456 18.8854 11.5713 18.955 11.5311L21.5562 10.0286C21.7062 9.94199 21.8937 10.0502 21.8937 10.2235V17.9088C21.8937 17.9892 21.8509 18.0635 21.7813 18.1037L19.1801 19.6061C19.0301 19.6928 18.8425 19.5845 18.8425 19.4113Z" fill="#3D90E9" stroke="#2D7DD2" stroke-width="0.15"/>
<path d="M17.8886 16.8231L17.8886 16.8231L19.3511 15.9787C19.3511 15.9787 19.3511 15.9787 19.3511 15.9787C19.4409 15.9269 19.5162 15.8358 19.5688 15.7354C19.6216 15.6344 19.6555 15.5163 19.6555 15.4039C19.6555 15.2933 19.622 15.1939 19.5475 15.1377C19.4684 15.0779 19.3677 15.0845 19.2761 15.1373L19.2761 15.1373L17.8136 15.9817L17.8136 15.9817C17.7239 16.0335 17.6485 16.1246 17.596 16.225C17.5431 16.326 17.5093 16.4441 17.5093 16.5565C17.5093 16.6671 17.5428 16.7665 17.6172 16.8227C17.6963 16.8825 17.7971 16.8759 17.8886 16.8231Z" fill="#E6E6E8" stroke="#C8C8C8" stroke-width="0.15"/>
</g>
</g>
<defs>
<filter id="filter0_d" x="0" y="0" width="23.5627" height="24.7056" filterUnits="userSpaceOnUse" color-interpolation-filters="sRGB">
<feFlood flood-opacity="0" result="BackgroundImageFix"/>
<feColorMatrix in="SourceAlpha" type="matrix" values="0 0 0 0 0 0 0 0 0 0 0 0 0 0 0 0 0 0 127 0"/>
<feOffset dy="0.5"/>
<feGaussianBlur stdDeviation="0.5"/>
<feColorMatrix type="matrix" values="0 0 0 0 0 0 0 0 0 0 0 0 0 0 0 0 0 0 0.2 0"/>
<feBlend mode="normal" in2="BackgroundImageFix" result="effect1_dropShadow"/>
<feBlend mode="normal" in="SourceGraphic" in2="effect1_dropShadow" result="shape"/>
</filter>
<linearGradient id="paint0_linear" x1="13.3404" y1="14.3923" x2="15.4674" y2="14.3923" gradientUnits="userSpaceOnUse">
<stop stop-color="#3D90E9"/>
<stop offset="1" stop-color="#5FB4FC"/>
</linearGradient>
<linearGradient id="paint1_linear" x1="11.7815" y1="0.5" x2="11.7815" y2="13.3321" gradientUnits="userSpaceOnUse">
<stop stop-color="#B4DDFF"/>
<stop offset="1" stop-color="#5CB6FF"/>
</linearGradient>
<clipPath id="clip0">
<rect width="24" height="24" fill="white"/>
</clipPath>
</defs>
</svg>
