<svg width="32" height="32" viewBox="0 0 32 32" fill="none" xmlns="http://www.w3.org/2000/svg">
<g clip-path="url(#clip0)">
<g filter="url(#filter0_d)">
<path d="M1.43333 7.55195L29.9833 11.0924V24.1687C29.9833 24.4374 29.8508 24.7047 29.5855 24.8578L29.5855 24.8578L19.6458 30.5965C19.0815 30.9223 18.3862 30.9224 17.8219 30.5966C17.8218 30.5966 17.8218 30.5966 17.8217 30.5965L1.83141 21.2927L1.83111 21.2926C1.5658 21.1394 1.43328 20.8722 1.43333 20.6035V20.6035V7.55195Z" fill="url(#paint0_linear)" stroke="#2D7DD2" stroke-width="0.2"/>
<path d="M29.5854 10.3149L29.5857 10.315C30.1161 10.6213 30.1161 11.3868 29.5857 11.693L19.6459 17.4317C19.0816 17.7575 18.3864 17.7576 17.8221 17.4318C17.822 17.4318 17.8219 17.4317 17.8219 17.4317L1.83164 8.12792L1.83135 8.12776C1.30098 7.82152 1.30098 7.05599 1.83135 6.74976L11.7711 1.01108L11.7212 0.924624L11.7711 1.01108C12.3354 0.685242 13.0307 0.685225 13.595 1.01102C13.595 1.01104 13.5951 1.01106 13.5951 1.01108L29.5854 10.3149Z" fill="url(#paint1_linear)" stroke="#2D7DD2" stroke-width="0.2"/>
<path d="M1.92131 6.90318L1.922 6.90278L11.9733 1.10851C11.9734 1.10845 11.9735 1.10838 11.9736 1.10832C12.5185 0.800137 13.077 0.903321 13.6483 1.22652C13.6484 1.2266 13.6485 1.22668 13.6487 1.22676L29.3762 10.3322L29.3771 10.3327C29.6468 10.4853 29.8024 10.7299 29.8281 10.966C29.8534 11.198 29.7551 11.4307 29.4953 11.5777L29.4944 11.5783L19.9171 17.1355C19.9168 17.1357 19.9165 17.1358 19.9162 17.136C19.3917 17.4272 19.0244 17.5311 18.7234 17.5285C18.4239 17.526 18.1762 17.4182 17.8868 17.2544C17.8866 17.2543 17.8864 17.2542 17.8862 17.2541L2.03613 8.06124L2.03613 8.06123L2.03522 8.06071C1.76146 7.90577 1.61035 7.68117 1.58632 7.4706C1.56297 7.26597 1.65695 7.0528 1.92131 6.90318Z" stroke="white" stroke-opacity="0.3" stroke-width="0.2"/>
<path d="M10.8306 25.5615L10.3922 25.3084C10.3303 25.2727 10.2922 25.2066 10.2922 25.1352V14.657C10.2922 14.503 10.4589 14.4068 10.5922 14.4838L11.0306 14.7369C11.0925 14.7726 11.1306 14.8387 11.1306 14.9101V25.3883C11.1306 25.5422 10.9639 25.6384 10.8306 25.5615Z" fill="#60B5FC" stroke="#2D7DD2" stroke-width="0.2"/>
<path d="M16.5224 28.7322V18.254C16.5224 18.1 16.689 18.0038 16.8224 18.0808L17.3702 18.3971C17.4321 18.4328 17.4702 18.4988 17.4702 18.5703V29.0485C17.4702 29.2025 17.3036 29.2987 17.1702 29.2217L16.6224 28.9054C16.5605 28.8697 16.5224 28.8036 16.5224 28.7322Z" fill="#60B5FC" stroke="#2D7DD2" stroke-width="0.2"/>
<path d="M12.3689 26.3342V15.856C12.3689 15.702 12.5355 15.6058 12.6689 15.6828L13.1072 15.9359C13.1691 15.9716 13.2072 16.0376 13.2072 16.1091V26.5873C13.2072 26.7412 13.0406 26.8375 12.9072 26.7605L12.4689 26.5074C12.407 26.4716 12.3689 26.4056 12.3689 26.3342Z" fill="#60B5FC" stroke="#2D7DD2" stroke-width="0.2"/>
<path d="M8.75383 24.3625L8.31546 24.1094C8.25358 24.0736 8.21546 24.0076 8.21546 23.9362V13.458C8.21546 13.304 8.38213 13.2078 8.51546 13.2848L8.95383 13.5379C9.01571 13.5736 9.05383 13.6396 9.05383 13.7111V24.1893C9.05383 24.3432 8.88716 24.4394 8.75383 24.3625Z" fill="#60B5FC" stroke="#2D7DD2" stroke-width="0.2"/>
<path d="M14.4456 27.5331V17.055C14.4456 16.901 14.6123 16.8048 14.7456 16.8818L15.184 17.1349C15.2459 17.1706 15.284 17.2366 15.284 17.3081V27.7862C15.284 27.9402 15.1173 28.0364 14.984 27.9594L14.5456 27.7064C14.4837 27.6706 14.4456 27.6046 14.4456 27.5331Z" fill="#60B5FC" stroke="#2D7DD2" stroke-width="0.2"/>
<path d="M6.4871 12.1137L6.8771 12.3389C6.93898 12.3746 6.9771 12.4406 6.9771 12.5121V22.9903C6.9771 23.1443 6.81043 23.2405 6.6771 23.1635L6.28709 22.9383C6.22522 22.9026 6.1871 22.8366 6.1871 22.7651V12.2869C6.1871 12.1329 6.35377 12.0367 6.4871 12.1137Z" fill="#60B5FC" stroke="#2D7DD2" stroke-width="0.2"/>
<path d="M2.3489 9.71011L2.73896 9.93531C2.80084 9.97104 2.83896 10.0371 2.83896 10.1085V20.5867C2.83896 20.7407 2.67229 20.8369 2.53896 20.7599L2.1489 20.5347C2.08702 20.499 2.0489 20.433 2.0489 20.3615V9.88332C2.0489 9.72936 2.21556 9.63313 2.3489 9.71011Z" fill="#60B5FC" stroke="#2D7DD2" stroke-width="0.2"/>
<path d="M4.60041 21.9312L4.16204 21.6781C4.10016 21.6424 4.06204 21.5763 4.06204 21.5049V11.0267C4.06204 10.8727 4.2287 10.7765 4.36204 10.8535L4.80041 11.1066C4.86229 11.1423 4.90041 11.2083 4.90041 11.2798V21.758C4.90041 21.9119 4.73374 22.0082 4.60041 21.9312Z" fill="#60B5FC" stroke="#2D7DD2" stroke-width="0.2"/>
<path d="M2.33367 9.68236L2.72368 9.90754C2.78555 9.94327 2.82367 10.0093 2.82367 10.0807V20.559C2.82367 20.7129 2.657 20.8092 2.52367 20.7322L2.13367 20.507C2.07179 20.4713 2.03367 20.4053 2.03367 20.3338V9.85556C2.03367 9.7016 2.20034 9.60538 2.33367 9.68236Z" fill="#60B5FC" stroke="#2D7DD2" stroke-width="0.2"/>
<path d="M20.1083 18.368L24.0247 16.0978C24.2247 15.9818 24.4752 16.1261 24.4752 16.3573V26.6036C24.4752 26.7106 24.4182 26.8095 24.3256 26.8632L20.4092 29.1334C20.2092 29.2493 19.9587 29.105 19.9587 28.8738V18.6276C19.9587 18.5206 20.0157 18.4217 20.1083 18.368Z" fill="#3D90E9" stroke="#2D7DD2" stroke-width="0.2"/>
<path d="M25.1234 25.8818V15.6346C25.1234 15.5275 25.1805 15.4285 25.2733 15.3749L28.7416 13.3716C28.9416 13.256 29.1916 13.4004 29.1916 13.6313V23.8785C29.1916 23.9856 29.1345 24.0847 29.0417 24.1383L25.5734 26.1416C25.3734 26.2571 25.1234 26.1128 25.1234 25.8818Z" fill="#3D90E9" stroke="#2D7DD2" stroke-width="0.2"/>
<path d="M25.8015 21.3049C25.9212 21.2358 26.0216 21.1143 26.0917 20.9805C26.1621 20.8458 26.2073 20.6884 26.2073 20.5385C26.2073 20.391 26.1626 20.2585 26.0634 20.1835C25.9579 20.1038 25.8235 20.1126 25.7015 20.183L25.7015 20.183L23.7515 21.3089L23.7515 21.3089C23.6318 21.378 23.5313 21.4995 23.4613 21.6333C23.3908 21.768 23.3457 21.9254 23.3457 22.0752C23.3457 22.2227 23.3904 22.3552 23.4896 22.4302C23.5951 22.51 23.7294 22.5012 23.8514 22.4308L23.8515 22.4308L25.8015 21.3049ZM25.8015 21.3049L25.7515 21.2183L25.8015 21.3049L25.8015 21.3049Z" fill="#E6E6E8" stroke="#C8C8C8" stroke-width="0.2"/>
</g>
</g>
<defs>
<filter id="filter0_d" x="0.333328" y="0.366687" width="30.7502" height="32.2742" filterUnits="userSpaceOnUse" color-interpolation-filters="sRGB">
<feFlood flood-opacity="0" result="BackgroundImageFix"/>
<feColorMatrix in="SourceAlpha" type="matrix" values="0 0 0 0 0 0 0 0 0 0 0 0 0 0 0 0 0 0 127 0"/>
<feOffset dy="0.7"/>
<feGaussianBlur stdDeviation="0.5"/>
<feColorMatrix type="matrix" values="0 0 0 0 0 0 0 0 0 0 0 0 0 0 0 0 0 0 0.2 0"/>
<feBlend mode="normal" in2="BackgroundImageFix" result="effect1_dropShadow"/>
<feBlend mode="normal" in="SourceGraphic" in2="effect1_dropShadow" result="shape"/>
</filter>
<linearGradient id="paint0_linear" x1="17.7872" y1="19.1899" x2="20.6232" y2="19.1899" gradientUnits="userSpaceOnUse">
<stop stop-color="#3D90E9"/>
<stop offset="1" stop-color="#5FB4FC"/>
</linearGradient>
<linearGradient id="paint1_linear" x1="15.7085" y1="0.666687" x2="15.7085" y2="17.7761" gradientUnits="userSpaceOnUse">
<stop stop-color="#B4DDFF"/>
<stop offset="1" stop-color="#5CB6FF"/>
</linearGradient>
<clipPath id="clip0">
<rect width="32" height="32" fill="white"/>
</clipPath>
</defs>
</svg>
