<svg width="32" height="32" viewBox="0 0 32 32" fill="none" xmlns="http://www.w3.org/2000/svg">
<g clip-path="url(#clip0)">
<path d="M26.1056 22.5338C24.8222 23.302 23.2686 23.944 21.3883 24.3725L21.3883 24.3725C21.3365 24.3843 21.2845 24.3954 21.2334 24.4062C21.2329 24.4151 21.2325 24.4246 21.2321 24.4346C21.2285 24.5232 21.2257 24.6498 21.229 24.8002C21.2357 25.1021 21.2669 25.4947 21.3632 25.868C21.4601 26.244 21.6183 26.5817 21.865 26.7947C22.1031 27.0002 22.4434 27.1065 22.951 26.9837L26.1056 22.5338ZM26.1056 22.5338C25.7561 23.3908 25.3153 24.3481 24.817 25.1599C24.5259 25.634 24.2179 26.0541 23.9003 26.3747C23.5814 26.6966 23.2625 26.9083 22.951 26.9837L26.1056 22.5338Z" fill="#60B8FF" stroke="#3CA8FF" stroke-width="0.3"/>
<path d="M21.355 24.2262C21.317 24.2349 21.2792 24.2431 21.2416 24.2511L21.2439 24.2557L21.2402 24.2977L21.2402 24.2977L21.2402 24.2977L21.2402 24.2977L21.2402 24.298L21.2401 24.2996L21.2395 24.3066L21.2375 24.3353C21.2364 24.3531 21.235 24.377 21.2336 24.4061M21.355 24.2262L21.2336 24.4061M21.355 24.2262C23.3052 23.7818 24.8981 23.1067 26.1992 22.3012L21.355 24.2262ZM21.2336 24.4061C21.2847 24.3953 21.3366 24.3842 21.3883 24.3725L21.3883 24.3725C23.2685 23.944 24.8221 23.302 26.1055 22.5338C25.8565 23.1442 25.5608 23.806 25.2311 24.4301C24.1323 25.0002 22.8502 25.481 21.3527 25.8249C21.2687 25.4807 21.2383 25.1234 21.2302 24.8383C21.2257 24.6777 21.2283 24.5417 21.2319 24.4461C21.2325 24.4318 21.2331 24.4185 21.2336 24.4061Z" fill="#22A7FF" stroke="#22A7FF" stroke-width="0.3"/>
<path d="M3.06868 9.47383C2.28798 9.62256 1.48616 9.2728 0.899025 8.90976C0.620604 8.7376 0.383371 8.55802 0.209894 8.41587C0.235714 8.55975 0.271116 8.7367 0.3186 8.93737C0.44969 9.49135 0.671972 10.2222 1.03651 10.9358C1.40129 11.6498 1.90479 12.3392 2.59479 12.8196C3.28159 13.2978 4.16119 13.5747 5.29342 13.4539L5.44949 13.4373L5.45905 13.5939C5.63323 16.4457 6.98213 19.6648 9.59167 21.8708C12.1958 24.0724 16.0694 25.2769 21.3213 24.0801C26.5671 22.8847 29.1934 20.0117 30.5128 17.445C31.1737 16.1593 31.5079 14.9477 31.6768 14.0578C31.7612 13.6131 31.8042 13.2491 31.8261 12.9972C31.837 12.8712 31.8427 12.7733 31.8456 12.7073C31.8471 12.6743 31.8479 12.6493 31.8483 12.6327L31.8486 12.6179L31.8465 12.6017C31.8443 12.5843 31.8408 12.5582 31.836 12.524C31.8262 12.4555 31.8107 12.3545 31.7882 12.2257C31.7432 11.9679 31.67 11.5989 31.5574 11.1557C31.3321 10.2687 30.9498 9.08793 30.3223 7.90867C29.0681 5.55163 26.8453 3.21645 22.9395 3.21645C20.59 3.21645 18.8893 3.82493 17.6187 4.74269C16.3461 5.66187 15.4939 6.89934 14.8562 8.17504C14.3934 9.10071 14.0478 10.0365 13.7344 10.885C13.6143 11.2101 13.499 11.5223 13.3836 11.8163C13.1771 12.3425 12.9694 12.8121 12.7338 13.1799C12.4987 13.5468 12.2252 13.8294 11.8797 13.9567C10.6264 14.4187 9.65358 14.1553 8.99555 13.7709C8.66862 13.58 8.42094 13.3602 8.25483 13.1882C8.17165 13.102 8.10857 13.0275 8.06587 12.9739C8.04451 12.947 8.02822 12.9254 8.01704 12.9102L8.0041 12.8922L8.0005 12.8871L7.99942 12.8855L7.99907 12.885L7.99893 12.8848C7.99888 12.8847 7.99883 12.8846 8.1229 12.8003L7.99883 12.8846L7.92734 12.7794L8.01942 12.6917L8.01946 12.6917L8.01983 12.6913L8.02166 12.6896L8.02954 12.6819C8.03663 12.675 8.04734 12.6644 8.06132 12.6503C8.08928 12.6221 8.13033 12.5798 8.18172 12.5245C8.28453 12.4138 8.42856 12.2509 8.59197 12.0438C8.91923 11.6289 9.32201 11.0392 9.62794 10.3372C10.2059 9.01103 10.4366 7.29438 9.16564 5.5815C9.1643 5.59101 9.1629 5.60066 9.16146 5.61046C9.12569 5.85362 9.06089 6.18523 8.94449 6.53766C8.71386 7.23598 8.26844 8.05126 7.40787 8.38453C6.74447 8.64156 6.36046 9.11066 6.14078 9.51983C6.03084 9.72459 5.96277 9.91322 5.92231 10.0502C5.90211 10.1185 5.88889 10.1737 5.88081 10.2112C5.87677 10.2299 5.87402 10.2442 5.87234 10.2535L5.87058 10.2635L5.87024 10.2656L5.87022 10.2657L5.87021 10.2658L5.8702 10.2658L5.81736 10.6136L5.60315 10.3346L5.6031 10.3346L5.60304 10.3345L5.60299 10.3344L5.60296 10.3344L5.60165 10.3327L5.59486 10.3243C5.58853 10.3166 5.57858 10.3048 5.56508 10.2895C5.53806 10.2589 5.49687 10.2146 5.44189 10.162C5.3318 10.0566 5.16735 9.9187 4.95166 9.79052C4.52173 9.53501 3.88836 9.31777 3.06868 9.47383ZM3.06868 9.47383L3.04061 9.32648M3.06868 9.47383C3.06868 9.47383 3.06867 9.47383 3.06867 9.47383L3.04061 9.32648M3.04061 9.32648C1.87925 9.54772 0.622366 8.57845 0.172228 8.18798L3.04061 9.32648Z" fill="#8BCAFF" stroke="#54AFFB" stroke-width="0.3"/>
<path d="M0.44652 8.60037C0.358622 8.53472 0.279329 8.47213 0.210085 8.41542C0.235909 8.55935 0.271328 8.73641 0.318844 8.9372C0.449934 9.49119 0.672215 10.2221 1.03675 10.9356C1.40154 11.6497 1.90503 12.339 2.59503 12.8194C3.28184 13.2976 4.16143 13.5745 5.29366 13.4538L5.36951 13.4457C5.35022 13.3502 5.33215 13.2548 5.31531 13.1596C5.20661 12.5455 4.72239 12.0733 4.10885 11.9815L4.13105 11.8332L4.10885 11.9815C2.08466 11.6785 1.0065 10.0212 0.44652 8.60037ZM10.0051 20.8261C7.60526 19.0641 6.1191 16.5063 5.48978 13.9791C5.75684 16.7319 7.09925 19.7634 9.59191 21.8707C12.1961 24.0722 16.0697 25.2767 21.3216 24.08C26.5673 22.8845 29.1936 20.0115 30.513 17.4448C30.9043 16.6837 31.181 15.9485 31.3768 15.2908C30.1832 18.1033 27.2524 21.3382 21.3876 22.6206C16.4441 23.7469 12.6689 22.782 10.0051 20.8261Z" fill="#60B8FF" stroke="#42A9FD" stroke-width="0.3"/>
<path d="M8.96869 21.3003C11.5641 23.8568 15.6356 25.3755 21.3216 24.08C26.5674 22.8845 29.1936 20.0115 30.513 17.4448C31.1123 16.279 31.443 15.1742 31.6254 14.3149C31.2266 15.4682 30.5663 16.7946 29.4843 18.0671C27.878 19.956 25.3492 21.7178 21.3883 22.6205L21.3549 22.4742L21.3883 22.6205C17.461 23.5154 14.2709 23.0901 11.7873 21.8949C10.8773 21.76 9.94078 21.5601 8.96869 21.3003Z" fill="#FFDCA7" stroke="#FFCA7A" stroke-width="0.3"/>
<path d="M19.3606 21.2317C22.231 20.1878 23.477 18.2194 24.0005 16.5122C24.2616 15.6609 24.3429 14.8757 24.3592 14.3034C24.3646 14.1127 24.3628 13.9454 24.3579 13.8068C25.238 14.6416 26.6571 14.9176 28.2298 14.9592L28.2337 14.9593V14.9592C29.4158 14.9592 30.3903 14.3859 31.0621 13.8246C31.3841 13.5556 31.6396 13.2869 31.8188 13.0795C31.7951 13.3258 31.7527 13.6593 31.6771 14.0577C31.5082 14.9475 31.174 16.1591 30.5131 17.4448C29.1937 20.0114 26.5674 22.8844 21.3216 24.0797L21.3538 24.221L21.3216 24.0797C15.636 25.3754 11.5643 23.8567 8.9689 21.3002C12.8055 22.3266 16.0884 22.422 19.3606 21.2317ZM19.3606 21.2317C19.3606 21.2317 19.3606 21.2317 19.3606 21.2317L19.3093 21.0908L19.3606 21.2317Z" fill="#FFE9C8" stroke="#FFD699" stroke-width="0.3"/>
<path d="M22.4555 18.7814C22.7341 24.943 17.1156 29.2602 15.5966 28.2577C14.3785 27.454 17.4204 24.0797 16.6396 20.3582" fill="#8BCAFF"/>
<path d="M17.0254 26.6558C16.5045 26.8273 16.0196 26.8588 15.6557 26.683C15.5404 27.039 15.4662 27.3381 15.4562 27.5796C15.4449 27.854 15.5163 28.0251 15.6792 28.1325L15.6792 28.1325C15.9536 28.3136 16.437 28.2977 17.0697 28.0289C17.6907 27.7651 18.4113 27.2751 19.1172 26.5927C20.2783 25.4703 21.3857 23.8414 21.9421 21.8809C21.1195 23.438 20.0193 24.6962 18.9474 25.5493C18.276 26.0836 17.6104 26.4632 17.0254 26.6558Z" fill="#60B8FF" stroke="#38A6FF" stroke-width="0.3"/>
<path d="M24.6907 9.70755C24.6907 10.3978 24.2571 10.9384 23.7039 10.9384C23.1505 10.9384 22.7172 10.3978 22.7172 9.70755C22.7172 9.01734 23.1505 8.47668 23.7039 8.47668C24.2571 8.47643 24.6907 9.01734 24.6907 9.70755Z" fill="#2D2B2B"/>
</g>
<defs>
<clipPath id="clip0">
<rect width="32" height="32" fill="white" transform="matrix(-1 0 0 1 32 0)"/>
</clipPath>
</defs>
</svg>
