<svg width="128" height="128" viewBox="0 0 128 128" fill="none" xmlns="http://www.w3.org/2000/svg">
<path d="M104.549 90.5109C99.3862 93.5972 93.113 96.1774 85.4921 97.8905L85.4919 97.8905C85.2607 97.9424 85.029 97.9908 84.8013 98.0382C84.7985 98.0932 84.7957 98.1538 84.7929 98.2198C84.7784 98.5704 84.7672 99.0706 84.7805 99.665C84.8071 100.858 84.9322 102.411 85.3188 103.89C85.7076 105.377 86.3451 106.728 87.3516 107.585C88.3303 108.418 89.7249 108.841 91.7796 108.351C93.0498 108.047 94.3386 107.199 95.6178 105.926C96.893 104.656 98.1271 102.995 99.2914 101.125C101.335 97.8401 103.136 93.9536 104.549 90.5109Z" fill="#60B8FF" stroke="#3CA8FF"/>
<path d="M104.549 90.5111C99.386 93.5973 93.1129 96.1774 85.4921 97.8905L85.492 97.8905C85.2611 97.9423 85.0297 97.9907 84.8024 98.038C84.7989 98.1054 84.7954 98.1813 84.7922 98.2652C84.7774 98.6433 84.7672 99.181 84.7854 99.8157C84.8185 100.966 84.945 102.418 85.2993 103.809C91.3407 102.449 96.5089 100.539 100.934 98.2709C102.305 95.7139 103.529 92.9958 104.549 90.5111Z" fill="#22A7FF" stroke="#22A7FF"/>
<path d="M21.2638 55.0669L21.7829 55.0123L21.8152 55.5333C22.5119 66.7846 27.9066 79.4863 38.3481 88.1933C48.7723 96.8859 64.273 101.635 85.2718 96.9155C106.25 92.1998 116.758 80.8637 122.037 70.7343C124.681 65.6614 126.017 60.8815 126.693 57.3709C127.03 55.6161 127.202 54.18 127.29 53.1852C127.334 52.6878 127.357 52.3009 127.368 52.0399C127.374 51.9093 127.377 51.8103 127.379 51.7446C127.38 51.7171 127.38 51.6954 127.38 51.6798C127.378 51.663 127.375 51.6396 127.371 51.6096C127.362 51.5408 127.349 51.4376 127.329 51.3024C127.29 51.032 127.228 50.6334 127.138 50.125C126.958 49.1081 126.665 47.6525 126.215 45.9047C125.314 42.4071 123.786 37.7495 121.276 33.0971C116.26 23.7983 107.358 14.5665 91.7093 14.5665C82.3087 14.5665 75.4962 16.9685 70.4041 20.5965C65.3059 24.2289 61.8949 29.1168 59.3449 34.1481C57.4948 37.7984 56.112 41.4913 54.8602 44.8344C54.3813 46.1135 53.9215 47.3413 53.4621 48.496C52.6377 50.5679 51.8109 52.4105 50.8753 53.8511C49.9411 55.2895 48.8634 56.3819 47.5138 56.8726C42.5434 58.6797 38.6917 57.6493 36.0868 56.1484C34.7912 55.4018 33.8091 54.5426 33.1504 53.8696C32.8206 53.5327 32.5707 53.2413 32.4018 53.0321C32.3174 52.9275 32.2531 52.8434 32.2091 52.7842C32.2008 52.773 32.1932 52.7626 32.1863 52.7532C32.175 52.7379 32.1658 52.725 32.1584 52.7148L32.1445 52.6952L32.1405 52.6894L32.1392 52.6874L32.1387 52.6867C32.1385 52.6865 32.1383 52.6862 32.5501 52.4026L32.1383 52.6862L31.8945 52.3323L32.2077 52.0383L32.2078 52.0381L32.2079 52.038L32.2095 52.0365L32.217 52.0294L32.249 51.9987C32.2776 51.9711 32.3207 51.929 32.3769 51.8732C32.4892 51.7614 32.6538 51.5942 32.8597 51.3755C33.2717 50.9379 33.8485 50.2946 34.5027 49.4765C35.8127 47.8386 37.4256 45.5095 38.6511 42.7359C40.9891 37.4442 41.9115 30.5693 36.6477 23.7268C36.6331 23.8365 36.6169 23.9523 36.5988 24.0736C36.4565 25.028 36.1987 26.329 35.7359 27.711C34.8173 30.4546 33.0509 33.6311 29.6573 34.9275C26.9797 35.9507 25.4314 37.8181 24.5474 39.4422C24.105 40.255 23.8311 41.0037 23.6682 41.5474C23.5869 41.8189 23.5336 42.0383 23.5009 42.1878C23.4846 42.2625 23.4734 42.3196 23.4666 42.3569C23.4631 42.3756 23.4607 42.3893 23.4593 42.3977L23.4579 42.4064L23.4578 42.407L23.4577 42.4074L23.4577 42.4076L23.4577 42.4077L23.2812 43.553L22.5696 42.6387L22.5695 42.6386L22.5693 42.6383L22.569 42.638L22.5687 42.6376L22.5629 42.6303C22.5602 42.627 22.5567 42.6227 22.5525 42.6175C22.5476 42.6116 22.5417 42.6044 22.5348 42.5961C22.5088 42.5649 22.4684 42.5174 22.4137 42.4563C22.3042 42.3341 22.1379 42.1577 21.9163 41.9485C21.4726 41.5296 20.8101 40.9816 19.9412 40.4722C18.208 39.4562 15.6532 38.5922 12.3499 39.2125C9.27341 39.7906 6.10101 38.4312 3.76142 37.0043C2.57999 36.2837 1.58469 35.5297 0.884895 34.9563C0.860458 34.9362 0.83638 34.9164 0.81266 34.8969C0.918564 35.5049 1.07346 36.2942 1.29267 37.208C1.81706 39.3939 2.7066 42.2796 4.16637 45.098C5.62687 47.9179 7.64599 50.6472 10.4184 52.5512C13.1806 54.4481 16.7178 55.5453 21.2638 55.0669Z" fill="#8BCAFF" stroke="#54AFFB"/>
<path d="M1.98331 35.8065C1.53318 35.4756 1.13915 35.164 0.813332 34.8952C0.919235 35.5034 1.07417 36.2931 1.29351 37.2074C1.81791 39.3933 2.70744 42.2789 4.16721 45.0974C5.62771 47.9173 7.64684 50.6466 10.4193 52.5505C13.1815 54.4475 16.7186 55.5446 21.2647 55.0663L21.6732 55.0233C21.5889 54.6159 21.5103 54.209 21.4375 53.803C20.9973 51.3497 19.0341 49.4565 16.5384 49.0881L16.5971 48.6903L16.5384 49.0881C8.50105 47.9015 4.21375 41.401 1.98331 35.8065ZM40.1264 83.9404C30.1567 76.72 24.1422 66.097 21.8303 55.7529C22.5833 66.9495 27.9756 79.5425 38.3489 88.1927C48.7731 96.8853 64.2739 101.635 85.2727 96.9148C106.251 92.1992 116.759 80.8631 122.038 70.7336C123.966 67.0345 125.198 63.4911 125.987 60.4821C121.725 71.8957 110.08 85.6869 85.4901 90.9908C65.7779 95.4209 50.7362 91.6246 40.1264 83.9404Z" fill="#60B8FF" stroke="#42A9FD"/>
<path d="M126.694 57.3703C126.728 57.1896 126.761 57.0122 126.793 56.8384C125.277 61.6989 122.56 67.5254 117.764 73.089C111.364 80.5124 101.286 87.44 85.4921 90.9904C69.8239 94.5122 57.1065 92.8344 47.2122 88.1334C43.4708 87.5874 39.6162 86.7688 35.6088 85.7003C45.9848 95.9388 62.3558 102.065 85.2727 96.9149C106.251 92.1992 116.759 80.8632 122.038 70.7337C124.682 65.6608 126.018 60.8809 126.694 57.3703Z" fill="#FFDCA7" stroke="#FFCA7A"/>
<path d="M97.2642 56.1318C97.2901 56.718 97.3034 57.4582 97.2786 58.3201C97.2139 60.5684 96.8898 63.653 95.8503 66.9966C93.7662 73.7002 88.8087 81.4259 77.3835 85.5246C64.2466 90.238 51.0631 89.8245 35.6095 85.7C45.9856 95.9382 62.3572 102.065 85.2728 96.9139L85.3661 97.3293L85.2728 96.9139C106.251 92.1987 116.759 80.8629 122.038 70.7335C124.682 65.6608 126.018 60.8809 126.694 57.3703C127.028 55.6302 127.2 54.2035 127.289 53.2097C127.254 53.25 127.219 53.2911 127.183 53.3329C126.466 54.161 125.415 55.2647 124.075 56.3692C121.401 58.5727 117.533 60.8144 112.848 60.8144V60.8146L112.835 60.8142C106.45 60.6477 100.734 59.5257 97.2642 56.1318Z" fill="#FFE9C8" stroke="#FFD699"/>
<path d="M89.7766 75.9586C90.889 100.226 68.4554 117.229 62.3905 113.28C57.5268 110.115 69.6726 96.8257 66.555 82.1689" fill="#8BCAFF"/>
<path d="M62.5671 106.946C62.086 108.397 61.7726 109.619 61.7314 110.606C61.6856 111.703 61.9748 112.413 62.6633 112.861L62.6634 112.861C63.8049 113.605 65.7808 113.523 68.3133 112.462C70.8072 111.417 73.6941 109.479 76.5191 106.786C81.3395 102.189 85.9287 95.4411 88.0638 87.3122C84.7454 93.8095 80.1627 99.0454 75.7054 102.544C73.0309 104.644 70.3836 106.132 68.0629 106.886C65.9406 107.575 63.9946 107.678 62.5671 106.946Z" fill="#60B8FF" stroke="#38A6FF"/>
<path d="M98.7011 40.2219C98.7011 42.9403 96.97 45.0696 94.7613 45.0696C92.5516 45.0696 90.8215 42.9403 90.8215 40.2219C90.8215 37.5036 92.5516 35.3742 94.7613 35.3742C96.97 35.3732 98.7011 37.5036 98.7011 40.2219Z" fill="#2D2B2B"/>
</svg>
