<svg width="128" height="128" viewBox="0 0 128 128" fill="none" xmlns="http://www.w3.org/2000/svg">
<g clip-path="url(#clip0)">
<g filter="url(#filter0_d)">
<path d="M6.35 30.4843L120.65 44.6586V97.008C120.65 98.0993 120.112 99.1855 119.034 99.8075L119.202 100.1L119.034 99.8075L79.2748 122.762C77.002 124.075 74.202 124.075 71.9291 122.763C71.9289 122.763 71.9287 122.763 71.9285 122.762L7.96716 85.5473L7.96614 85.5467C6.88828 84.9244 6.34979 83.8384 6.35 82.7473V82.7472V30.4843Z" fill="url(#paint0_linear)" stroke="#2D7DD2" stroke-width="0.7"/>
<path d="M119.033 41.5494L119.034 41.55C121.189 42.7942 121.189 45.9044 119.034 47.1486L79.2747 70.1033C77.002 71.4156 74.2019 71.4157 71.9291 70.1037C71.9289 70.1036 71.9287 70.1035 71.9284 70.1033L7.96736 32.8882L7.96635 32.8876C5.81155 31.6434 5.81155 28.5332 7.96634 27.289L47.7254 4.33427C49.9982 3.02201 52.7982 3.02192 55.0709 4.33394C55.071 4.33405 55.0712 4.33415 55.0714 4.33425L119.033 41.5494Z" fill="url(#paint1_linear)" stroke="#2D7DD2" stroke-width="0.7"/>
<path d="M8.32728 27.9024L8.32969 27.9011L48.5352 4.72376C48.5357 4.7235 48.5361 4.72324 48.5366 4.72298C50.7373 3.4782 52.9915 3.89849 55.2845 5.19596C55.285 5.19623 55.2855 5.1965 55.286 5.19678L118.197 41.6188L118.2 41.6205C119.291 42.2381 119.924 43.23 120.029 44.192C120.132 45.1394 119.729 46.0898 118.673 46.6876L118.669 46.6895L80.3592 68.9189C80.3582 68.9195 80.3571 68.9201 80.3561 68.9207C78.2544 70.0879 76.7762 70.5076 75.5599 70.4973C74.3486 70.487 73.3483 70.0505 72.1881 69.394C72.1877 69.3938 72.1874 69.3936 72.187 69.3933L8.7861 32.6215L8.78611 32.6214L8.78289 32.6196C7.67739 31.9939 7.06061 31.0831 6.96226 30.2213C6.86628 29.3804 7.25466 28.5095 8.32728 27.9024Z" stroke="white" stroke-opacity="0.3" stroke-width="0.7"/>
<path d="M44.7139 103.055L41.9605 101.466C41.8522 101.403 41.7854 101.288 41.7854 101.163V58.0953C41.7854 57.8258 42.0771 57.6574 42.3104 57.7921L45.0639 59.3819C45.1722 59.4444 45.2389 59.56 45.2389 59.685V102.752C45.2389 103.022 44.9473 103.19 44.7139 103.055Z" fill="#60B5FC" stroke="#2D7DD2" stroke-width="0.7"/>
<path d="M66.7061 115.551V72.4831C66.7061 72.2136 66.9978 72.0452 67.2311 72.1799L70.4227 74.0226C70.5309 74.0851 70.5977 74.2006 70.5977 74.3257V117.393C70.5977 117.663 70.306 117.831 70.0727 117.696L66.8811 115.854C66.7729 115.791 66.7061 115.676 66.7061 115.551Z" fill="#60B5FC" stroke="#2D7DD2" stroke-width="0.7"/>
<path d="M50.0922 105.959V62.8912C50.0922 62.6217 50.3838 62.4533 50.6172 62.588L53.3706 64.1778C53.4789 64.2403 53.5456 64.3559 53.5456 64.4809V107.548C53.5456 107.818 53.254 107.986 53.0206 107.851L50.2672 106.262C50.1589 106.199 50.0922 106.084 50.0922 105.959Z" fill="#60B5FC" stroke="#2D7DD2" stroke-width="0.7"/>
<path d="M36.407 98.2595L33.6535 96.6698C33.5452 96.6073 33.4785 96.4917 33.4785 96.3667V53.2992C33.4785 53.0298 33.7702 52.8614 34.0035 52.9961L36.757 54.5859C36.8653 54.6484 36.932 54.7639 36.932 54.889V97.9564C36.932 98.2259 36.6403 98.3943 36.407 98.2595Z" fill="#60B5FC" stroke="#2D7DD2" stroke-width="0.7"/>
<path d="M58.3991 110.754V67.6872C58.3991 67.4178 58.6908 67.2494 58.9241 67.3841L61.6776 68.9737C61.7859 69.0362 61.8526 69.1517 61.8526 69.2768V112.344C61.8526 112.614 61.561 112.782 61.3276 112.647L58.5741 111.058C58.4659 110.995 58.3991 110.88 58.3991 110.754Z" fill="#60B5FC" stroke="#2D7DD2" stroke-width="0.7"/>
<path d="M25.89 48.3116L28.4501 49.7897C28.5583 49.8522 28.625 49.9677 28.625 50.0928V93.1605C28.625 93.4299 28.3334 93.5983 28.1 93.4636L25.54 91.9855C25.4317 91.923 25.365 91.8074 25.365 91.6824V48.6147C25.365 48.3453 25.6567 48.1769 25.89 48.3116Z" fill="#60B5FC" stroke="#2D7DD2" stroke-width="0.7"/>
<path d="M9.33725 38.6973L11.8975 40.1755C12.0058 40.238 12.0725 40.3535 12.0725 40.4786V83.546C12.0725 83.8155 11.7808 83.9839 11.5475 83.8491L8.98725 82.371C8.87896 82.3085 8.81225 82.1929 8.81225 82.0679V39.0005C8.81225 38.731 9.10391 38.5626 9.33725 38.6973Z" fill="#60B5FC" stroke="#2D7DD2" stroke-width="0.7"/>
<path d="M19.7933 88.5341L17.0398 86.9444C16.9315 86.8819 16.8648 86.7663 16.8648 86.6413V43.5738C16.8648 43.3044 17.1565 43.136 17.3898 43.2707L20.1433 44.8605C20.2516 44.923 20.3183 45.0385 20.3183 45.1636V88.231C20.3183 88.5005 20.0266 88.6688 19.7933 88.5341Z" fill="#60B5FC" stroke="#2D7DD2" stroke-width="0.7"/>
<path d="M9.27634 38.5863L11.8364 40.0644C11.9446 40.1269 12.0113 40.2424 12.0113 40.3675V83.4352C12.0113 83.7046 11.7197 83.873 11.4863 83.7383L8.92633 82.2602C8.81804 82.1977 8.75134 82.0821 8.75134 81.9571V38.8894C8.75134 38.62 9.04301 38.4516 9.27634 38.5863Z" fill="#60B5FC" stroke="#2D7DD2" stroke-width="0.7"/>
<path d="M80.7756 73.9356L97.6414 64.1589C98.0748 63.9077 98.6174 64.2204 98.6174 64.7213V107.094C98.6174 107.325 98.4939 107.54 98.2934 107.656L81.4276 117.432C80.9942 117.684 80.4516 117.371 80.4516 116.87V74.498C80.4516 74.2662 80.5751 74.0519 80.7756 73.9356Z" fill="#3D90E9" stroke="#2D7DD2" stroke-width="0.7"/>
<path d="M101.11 104.9V62.5256C101.11 62.2934 101.234 62.0789 101.435 61.9628L116.508 53.2564C116.941 53.0061 117.483 53.3188 117.483 53.8192V96.1936C117.483 96.4258 117.359 96.6404 117.158 96.7565L102.085 105.463C101.652 105.713 101.11 105.4 101.11 104.9Z" fill="#3D90E9" stroke="#2D7DD2" stroke-width="0.7"/>
<path d="M96.0475 90.0132L96.0476 90.0132L103.848 85.5097C104.316 85.2396 104.712 84.7621 104.989 84.2322C105.268 83.6994 105.446 83.0777 105.446 82.4876C105.446 81.9058 105.269 81.3943 104.89 81.1075C104.489 80.8041 103.974 80.8339 103.498 81.1087L103.498 81.1088L95.6976 85.6123L95.6975 85.6123C95.2296 85.8825 94.8335 86.36 94.5562 86.8899C94.2773 87.4227 94.0994 88.0444 94.0994 88.6344C94.0994 89.2161 94.2757 89.7276 94.6552 90.0145C95.0566 90.3179 95.5713 90.2881 96.0475 90.0132Z" fill="#E6E6E8" stroke="#C8C8C8" stroke-width="0.7"/>
</g>
</g>
<defs>
<filter id="filter0_d" x="3" y="3" width="121" height="127.097" filterUnits="userSpaceOnUse" color-interpolation-filters="sRGB">
<feFlood flood-opacity="0" result="BackgroundImageFix"/>
<feColorMatrix in="SourceAlpha" type="matrix" values="0 0 0 0 0 0 0 0 0 0 0 0 0 0 0 0 0 0 127 0"/>
<feOffset dy="3"/>
<feGaussianBlur stdDeviation="1.5"/>
<feColorMatrix type="matrix" values="0 0 0 0 0 0 0 0 0 0 0 0 0 0 0 0 0 0 0.2 0"/>
<feBlend mode="normal" in2="BackgroundImageFix" result="effect1_dropShadow"/>
<feBlend mode="normal" in="SourceGraphic" in2="effect1_dropShadow" result="shape"/>
</filter>
<linearGradient id="paint0_linear" x1="71.8154" y1="77.0925" x2="83.1593" y2="77.0925" gradientUnits="userSpaceOnUse">
<stop stop-color="#3D90E9"/>
<stop offset="1" stop-color="#5FB4FC"/>
</linearGradient>
<linearGradient id="paint1_linear" x1="63.5001" y1="3" x2="63.5001" y2="71.4376" gradientUnits="userSpaceOnUse">
<stop stop-color="#B4DDFF"/>
<stop offset="1" stop-color="#5CB6FF"/>
</linearGradient>
<clipPath id="clip0">
<rect width="128" height="128" fill="white"/>
</clipPath>
</defs>
</svg>
