<svg width="64" height="64" viewBox="0 0 64 64" fill="none" xmlns="http://www.w3.org/2000/svg">
<path d="M52.314 45.8808C49.7273 47.4487 46.5842 48.7595 42.7655 49.6297L42.7654 49.6297C42.6493 49.6562 42.5329 49.6808 42.4186 49.7049C42.4171 49.7338 42.4157 49.7657 42.4142 49.8006C42.407 49.9788 42.4013 50.233 42.408 50.535C42.4213 51.1409 42.484 51.9304 42.6778 52.6821C42.8728 53.4383 43.1926 54.1252 43.6973 54.5608C44.1876 54.9839 44.8854 55.1983 45.9137 54.9495C46.5494 54.7957 47.195 54.3651 47.836 53.7181C48.475 53.0732 49.0933 52.2296 49.6766 51.2794C50.7023 49.6086 51.6057 47.6312 52.314 45.8808Z" fill="#60B8FF" stroke="#3CA8FF" stroke-width="0.5"/>
<path d="M52.3139 45.8809C49.7272 47.4487 46.5841 48.7595 42.7655 49.6297L42.7654 49.6297C42.6495 49.6561 42.5333 49.6807 42.4191 49.7048C42.4174 49.7399 42.4155 49.7797 42.4138 49.8237C42.4065 50.0158 42.4013 50.2891 42.4105 50.6116C42.4271 51.1968 42.4905 51.9352 42.6686 52.643C45.6943 51.9522 48.2827 50.9825 50.4991 49.8308C51.1876 48.5291 51.8021 47.1452 52.3139 45.8809Z" fill="#22A7FF" stroke="#22A7FF" stroke-width="0.5"/>
<path d="M10.5922 27.8911L10.8523 27.8633L10.8683 28.1244C11.2174 33.8401 13.9206 40.2915 19.1511 44.7134C24.3728 49.1277 32.1365 51.5391 42.6539 49.1425C53.1609 46.748 58.4251 40.9917 61.07 35.8464C62.3946 33.2697 63.0643 30.8418 63.4027 29.0585C63.5719 28.1671 63.6581 27.4376 63.702 26.9322C63.724 26.6796 63.7354 26.483 63.7413 26.3503C63.7442 26.284 63.7458 26.2336 63.7466 26.2002L63.7473 26.1667L63.7428 26.1306C63.7383 26.0956 63.7313 26.0432 63.7215 25.9745C63.7018 25.8371 63.6709 25.6346 63.6258 25.3763C63.5356 24.8598 63.3889 24.1204 63.1634 23.2327C62.7121 21.4561 61.9463 19.0905 60.6889 16.7274C58.1752 12.0037 53.7157 7.31645 45.879 7.31645C41.1709 7.31645 37.7589 8.53601 35.2082 10.3784C32.6543 12.2231 30.9453 14.7057 29.6678 17.2613C28.7409 19.1152 28.0481 20.991 27.421 22.6888C27.1811 23.3382 26.9509 23.9616 26.7208 24.5478C26.3079 25.5998 25.8939 26.5352 25.4256 27.2663C24.958 27.9961 24.4185 28.5508 23.7421 28.8001C21.2516 29.7181 19.3214 29.1945 18.0164 28.4322C17.3674 28.0531 16.8756 27.6168 16.5457 27.2752C16.3806 27.1042 16.2555 26.9562 16.1709 26.8501C16.1287 26.797 16.0965 26.7543 16.0745 26.7243C16.0635 26.7093 16.055 26.6975 16.0491 26.6891L16.0422 26.6792L16.0402 26.6763L16.0395 26.6753L16.0393 26.6749C16.0392 26.6748 16.0391 26.6747 16.2459 26.5342L16.0391 26.6747L15.92 26.4993L16.0734 26.3532L16.0735 26.3531L16.0736 26.3531L16.0744 26.3523L16.0781 26.3487L16.0941 26.3331C16.1085 26.319 16.1301 26.2977 16.1582 26.2693C16.2145 26.2125 16.297 26.1276 16.4002 26.0165C16.6066 25.7943 16.8955 25.4675 17.2233 25.052C17.8795 24.2201 18.6877 23.037 19.3018 21.628C20.4736 18.9393 20.9358 15.4455 18.2983 11.9691C18.2909 12.0254 18.2827 12.0849 18.2735 12.1472C18.2023 12.6315 18.0732 13.2918 17.8416 13.9932C17.3819 15.3851 16.4978 16.9976 14.7978 17.656C13.4569 18.1755 12.6809 19.1238 12.2376 19.9495C12.0158 20.3627 11.8784 20.7433 11.7968 21.0197C11.756 21.1578 11.7292 21.2694 11.7128 21.3454C11.7046 21.3834 11.699 21.4125 11.6956 21.4315L11.6919 21.4523L11.6912 21.4568L11.6911 21.4572L11.6911 21.4573L11.6911 21.4575L11.6911 21.4575L11.603 22.0372L11.2459 21.5722L11.2459 21.5721L11.2458 21.572L11.2457 21.5719L11.2455 21.5716L11.2425 21.5679L11.2285 21.5505C11.2154 21.5346 11.1951 21.5105 11.1677 21.4794C11.1129 21.4173 11.0295 21.3277 10.9185 21.2214C10.6961 21.0086 10.3642 20.7303 9.92897 20.4716C9.06085 19.9557 7.78178 19.5172 6.12808 19.8321C4.58588 20.1259 2.99613 19.435 1.82444 18.7105C1.23266 18.3446 0.734131 17.9617 0.383636 17.6706C0.371296 17.6603 0.359135 17.6502 0.34716 17.6401C0.400253 17.9498 0.478138 18.3528 0.588642 18.8198C0.851398 19.9302 1.29712 21.3961 2.02859 22.8279C2.76047 24.2604 3.7722 25.6468 5.1611 26.6138C6.54468 27.5771 8.31592 28.1339 10.5922 27.8911Z" fill="#8BCAFF" stroke="#54AFFB" stroke-width="0.5"/>
<path d="M0.934376 18.1027C0.708538 17.9344 0.51088 17.776 0.347492 17.6393C0.400585 17.949 0.478493 18.3522 0.589058 18.8195C0.851818 19.9299 1.29753 21.3957 2.02901 22.8275C2.76089 24.2601 3.77262 25.6465 5.16152 26.6134C6.5451 27.5767 8.31634 28.1336 10.5927 27.8908L10.799 27.8688C10.7564 27.6602 10.7167 27.4519 10.6799 27.2441C10.4588 25.9948 9.47355 25.0339 8.22514 24.8471L8.26213 24.5999L8.22512 24.8471C4.19765 24.2443 2.05082 20.9422 0.934376 18.1027ZM20.0398 42.5455C15.0445 38.8777 12.0322 33.4815 10.8753 28.2284C11.2508 33.9182 13.9528 40.318 19.1516 44.7131C24.3732 49.1274 32.1369 51.5388 42.6543 49.1422C53.1614 46.7477 58.4255 40.9913 61.0705 35.846C62.04 33.9601 62.6586 32.1538 63.0533 30.6217C60.9232 36.4184 55.0922 43.4303 42.7643 46.126C32.8895 48.3758 25.3544 46.4477 20.0398 42.5455Z" fill="#60B8FF" stroke="#42A9FD" stroke-width="0.5"/>
<path d="M17.7686 43.437C22.9658 48.6428 31.1688 51.7591 42.6544 49.1423C53.1615 46.7478 58.4256 40.9914 61.0705 35.8461C62.3951 33.2694 63.0648 30.8415 63.4032 29.0582C63.4214 28.9624 63.4387 28.8684 63.455 28.7763C62.6963 31.2456 61.3353 34.2072 58.9305 37.0353C55.7253 40.8045 50.6773 44.3227 42.7655 46.1258L42.7099 45.882L42.7655 46.1258C34.9168 47.9143 28.546 47.0623 23.5895 44.6749C21.7127 44.3972 19.779 43.9807 17.7686 43.437Z" fill="#FFDCA7" stroke="#FFCA7A" stroke-width="0.5"/>
<path d="M48.6609 28.4243C48.6741 28.7224 48.6808 29.0995 48.6684 29.539C48.636 30.6802 48.4737 32.246 47.9532 33.9432C46.9099 37.3454 44.4276 41.2685 38.7041 43.35C32.1207 45.7447 25.5139 45.5336 17.769 43.4368C22.9662 48.6425 31.1696 51.759 42.6544 49.1417L42.7072 49.3736L42.6544 49.1417C53.1615 46.7475 58.4256 40.9912 61.0706 35.846C62.3951 33.2694 63.0648 30.8415 63.4033 29.0582C63.5715 28.1717 63.6577 27.4452 63.7019 26.9401C63.6846 26.9607 63.6669 26.9815 63.6487 27.0028C63.2899 27.4232 62.7635 27.9836 62.0922 28.5444C60.7532 29.6631 58.8152 30.802 56.4675 30.802V30.802L56.4609 30.8019C53.262 30.7173 50.3985 30.1472 48.6609 28.4243Z" fill="#FFE9C8" stroke="#FFD699" stroke-width="0.5"/>
<path d="M44.911 38.4963C45.4682 50.8196 34.2311 59.4539 31.1932 57.449C28.7569 55.8414 34.8408 49.093 33.2792 41.65" fill="#8BCAFF"/>
<path d="M44.0558 44.2537C42.3938 47.5548 40.0974 50.2152 37.8637 51.9929C36.5241 53.059 35.198 53.8149 34.0353 54.1976C32.9726 54.5474 31.9974 54.6003 31.2819 54.2287C31.0407 54.9661 30.8832 55.5882 30.8625 56.0907C30.8395 56.6496 30.9853 57.0123 31.3308 57.2403L31.3309 57.2403C31.902 57.6173 32.8905 57.5761 34.159 57.0373C35.408 56.5068 36.8541 55.5228 38.2693 54.1548C40.686 51.8187 42.9871 48.3875 44.0558 44.2537Z" fill="#60B8FF" stroke="#38A6FF" stroke-width="0.5"/>
<path d="M49.3813 20.3486C49.3813 21.7291 48.5142 22.8104 47.4079 22.8104C46.301 22.8104 45.4344 21.7291 45.4344 20.3486C45.4344 18.9682 46.301 17.8869 47.4079 17.8869C48.5142 17.8864 49.3813 18.9682 49.3813 20.3486Z" fill="#2D2B2B"/>
</svg>
