<svg width="64" height="64" viewBox="0 0 64 64" fill="none" xmlns="http://www.w3.org/2000/svg">
<g clip-path="url(#clip0)">
<g filter="url(#filter0_d)">
<path d="M3.2 15.2705L60.3 22.3514V48.504C60.3 49.0414 60.035 49.5759 59.5044 49.8821L59.5044 49.8821L39.6249 61.3596C38.4963 62.0112 37.106 62.0113 35.9773 61.3599L3.2 15.2705ZM3.2 15.2705V41.3736V41.3736C3.19989 41.911 3.46495 42.4454 3.99557 42.7517L3.99615 42.752L35.9767 61.3596L3.2 15.2705Z" fill="url(#paint0_linear)" stroke="#2D7DD2" stroke-width="0.4"/>
<path d="M59.5039 20.7963L59.5045 20.7967C60.5653 21.4091 60.5653 22.9402 59.5045 23.5527L39.625 35.03C38.4964 35.6817 37.1059 35.6817 35.9772 35.0302C35.9771 35.0302 35.977 35.0301 35.9768 35.03L3.99638 16.4225L3.9958 16.4221C2.93507 15.8097 2.93507 14.2786 3.9958 13.6661L23.8753 2.18878L23.7753 2.01558L23.8753 2.18878C25.004 1.53711 26.3945 1.53708 27.5231 2.18866C27.5232 2.1887 27.5233 2.18874 27.5233 2.18878L59.5039 20.7963Z" fill="url(#paint1_linear)" stroke="#2D7DD2" stroke-width="0.4"/>
<path d="M4.17596 13.973L4.17733 13.9722L24.2799 2.38364C24.2802 2.3835 24.2804 2.38336 24.2807 2.38322C25.3703 1.76691 26.4875 1.97329 27.6298 2.61968C27.6301 2.61983 27.6304 2.61999 27.6307 2.62014L59.0858 20.831L59.0875 20.832C59.627 21.1373 59.9382 21.6265 59.9896 22.0987C60.0401 22.5626 59.8435 23.0281 59.324 23.3221L59.3221 23.3231L40.1675 34.4376C40.1669 34.4379 40.1664 34.4382 40.1658 34.4385C39.1168 35.0211 38.3822 35.2288 37.7802 35.2236C37.1812 35.2185 36.6857 35.003 36.1069 34.6755C36.1065 34.6753 36.1062 34.6751 36.1058 34.6749L4.40559 16.2891L4.4056 16.2891L4.40376 16.2881C3.85624 15.9782 3.55404 15.529 3.50597 15.1078C3.45926 14.6986 3.64722 14.2722 4.17596 13.973Z" stroke="white" stroke-opacity="0.3" stroke-width="0.4"/>
<path d="M21.8445 51.203L21.1677 50.8123C21.013 50.723 20.9177 50.5579 20.9177 50.3793V29.6539C20.9177 29.2689 21.3344 29.0284 21.6677 29.2208L22.3445 29.6116C22.4992 29.7009 22.5945 29.8659 22.5945 30.0446V50.7699C22.5945 51.1548 22.1778 51.3954 21.8445 51.203Z" fill="#60B5FC" stroke="#2D7DD2" stroke-width="0.4"/>
<path d="M33.3781 57.5731V36.8477C33.3781 36.4628 33.7947 36.2222 34.1281 36.4147L35.0238 36.9318C35.1785 37.0211 35.2738 37.1862 35.2738 37.3648V58.0903C35.2738 58.4752 34.8572 58.7158 34.5238 58.5233L33.6281 58.0061C33.4734 57.9168 33.3781 57.7518 33.3781 57.5731Z" fill="#60B5FC" stroke="#2D7DD2" stroke-width="0.4"/>
<path d="M25.0711 52.7772V32.0517C25.0711 31.6668 25.4878 31.4263 25.8211 31.6187L26.4978 32.0095C26.6525 32.0988 26.7478 32.2638 26.7478 32.4425V53.1679C26.7478 53.5528 26.3312 53.7934 25.9978 53.6009L25.3211 53.2102C25.1664 53.1209 25.0711 52.9558 25.0711 52.7772Z" fill="#60B5FC" stroke="#2D7DD2" stroke-width="0.4"/>
<path d="M17.691 48.8049L17.0142 48.4142C16.8595 48.3249 16.7642 48.1598 16.7642 47.9812V27.2558C16.7642 26.8709 17.1809 26.6303 17.5142 26.8228L18.191 27.2135C18.3457 27.3028 18.441 27.4679 18.441 27.6465V48.3719C18.441 48.7568 18.0243 48.9974 17.691 48.8049Z" fill="#60B5FC" stroke="#2D7DD2" stroke-width="0.4"/>
<path d="M29.2246 55.1751V34.4498C29.2246 34.0649 29.6412 33.8243 29.9746 34.0167L30.6513 34.4074C30.806 34.4967 30.9013 34.6618 30.9013 34.8404V55.5658C30.9013 55.9507 30.4846 56.1913 30.1513 55.9989L29.4746 55.6081C29.3199 55.5188 29.2246 55.3538 29.2246 55.1751Z" fill="#60B5FC" stroke="#2D7DD2" stroke-width="0.4"/>
<path d="M13.4575 24.4806L14.0375 24.8154C14.1922 24.9048 14.2875 25.0698 14.2875 25.2485V45.974C14.2875 46.3589 13.8709 46.5995 13.5375 46.407L12.9575 46.0721C12.8028 45.9828 12.7075 45.8178 12.7075 45.6391V24.9136C12.7075 24.5287 13.1242 24.2881 13.4575 24.4806Z" fill="#60B5FC" stroke="#2D7DD2" stroke-width="0.4"/>
<path d="M5.18112 19.6734L5.76124 20.0083C5.91595 20.0976 6.01125 20.2627 6.01125 20.4413V41.1668C6.01125 41.5517 5.59458 41.7922 5.26125 41.5998L4.68113 41.2649C4.52643 41.1755 4.43112 41.0105 4.43112 40.8318V20.1064C4.43112 19.7215 4.84779 19.4809 5.18112 19.6734Z" fill="#60B5FC" stroke="#2D7DD2" stroke-width="0.4"/>
<path d="M9.38414 43.9423L8.7074 43.5515C8.5527 43.4622 8.4574 43.2972 8.4574 43.1185V22.3931C8.4574 22.0082 8.87407 21.7676 9.20741 21.9601L9.88415 22.3508C10.0388 22.4401 10.1341 22.6052 10.1341 22.7838V43.5093C10.1341 43.8942 9.71748 44.1347 9.38414 43.9423Z" fill="#60B5FC" stroke="#2D7DD2" stroke-width="0.4"/>
<path d="M5.15068 19.6179L5.73068 19.9528C5.88538 20.0421 5.98067 20.2072 5.98067 20.3858V41.1113C5.98067 41.4962 5.564 41.7368 5.23066 41.5443L4.65066 41.2094C4.49596 41.1201 4.40067 40.9551 4.40067 40.7764V20.0509C4.40067 19.666 4.81734 19.4254 5.15068 19.6179Z" fill="#60B5FC" stroke="#2D7DD2" stroke-width="0.4"/>
<path d="M40.6496 36.845L48.0825 32.5363C48.6158 32.2271 49.2837 32.6119 49.2837 33.2284V53.2587C49.2837 53.544 49.1317 53.8077 48.8849 53.9508L41.452 58.2594C40.9187 58.5686 40.2508 58.1837 40.2508 57.5673V37.5371C40.2508 37.2518 40.4027 36.9881 40.6496 36.845Z" fill="#3D90E9" stroke="#2D7DD2" stroke-width="0.4"/>
<path d="M50.5801 51.5838V31.5514C50.5801 31.2657 50.7325 31.0016 50.98 30.8587L57.5165 27.0831C58.0498 26.775 58.7166 27.1599 58.7166 27.7758V47.8082C58.7166 48.094 58.5642 48.358 58.3167 48.5009L51.7802 52.2765C51.2469 52.5846 50.5801 52.1997 50.5801 51.5838Z" fill="#3D90E9" stroke="#2D7DD2" stroke-width="0.4"/>
<path d="M48.0363 45.0282L48.0363 45.0282L51.9363 42.7765C52.1757 42.6383 52.3766 42.3953 52.5167 42.1277C52.6577 41.8583 52.7479 41.5435 52.7479 41.2437C52.7479 40.9488 52.6585 40.6838 52.4601 40.5338C52.2491 40.3743 51.9804 40.3918 51.7364 40.5327L51.7363 40.5327L47.8363 42.7845L47.8363 42.7845C47.5969 42.9227 47.396 43.1657 47.2559 43.4333C47.115 43.7027 47.0247 44.0174 47.0247 44.3172C47.0247 44.6121 47.1141 44.8772 47.3125 45.0271C47.5235 45.1866 47.7922 45.1691 48.0363 45.0282Z" fill="#E6E6E8" stroke="#C8C8C8" stroke-width="0.4"/>
</g>
</g>
<defs>
<filter id="filter0_d" x="0" y="0" width="63.5001" height="66.5484" filterUnits="userSpaceOnUse" color-interpolation-filters="sRGB">
<feFlood flood-opacity="0" result="BackgroundImageFix"/>
<feColorMatrix in="SourceAlpha" type="matrix" values="0 0 0 0 0 0 0 0 0 0 0 0 0 0 0 0 0 0 127 0"/>
<feOffset dy="1.5"/>
<feGaussianBlur stdDeviation="1.5"/>
<feColorMatrix type="matrix" values="0 0 0 0 0 0 0 0 0 0 0 0 0 0 0 0 0 0 0.2 0"/>
<feBlend mode="normal" in2="BackgroundImageFix" result="effect1_dropShadow"/>
<feBlend mode="normal" in="SourceGraphic" in2="effect1_dropShadow" result="shape"/>
</filter>
<linearGradient id="paint0_linear" x1="35.9077" y1="38.5463" x2="41.5796" y2="38.5463" gradientUnits="userSpaceOnUse">
<stop stop-color="#3D90E9"/>
<stop offset="1" stop-color="#5FB4FC"/>
</linearGradient>
<linearGradient id="paint1_linear" x1="31.7502" y1="1.5" x2="31.7502" y2="35.7188" gradientUnits="userSpaceOnUse">
<stop stop-color="#B4DDFF"/>
<stop offset="1" stop-color="#5CB6FF"/>
</linearGradient>
<clipPath id="clip0">
<rect width="64" height="64" fill="white"/>
</clipPath>
</defs>
</svg>
