<svg width="16" height="16" viewBox="0 0 16 16" fill="none" xmlns="http://www.w3.org/2000/svg">
<g clip-path="url(#clip0)">
<g filter="url(#filter0_d)">
<path d="M0.890565 10.6896L8.88586 15.3415C9.18351 15.5134 9.55023 15.5134 9.84789 15.3415L14.8178 12.4722C14.967 12.386 15.0417 12.2352 15.0417 12.0843V5.50199L0.890565 10.6896ZM0.890565 10.6896C0.741293 10.6034 0.666642 10.4526 0.666672 10.3017L0.890565 10.6896ZM0.716672 3.77594L14.9917 5.54617V12.0843C14.9917 12.2187 14.9254 12.3523 14.7928 12.4289L14.7928 12.4289L9.82289 15.2982C9.54073 15.4611 9.19312 15.4612 8.91095 15.2983C8.91092 15.2983 8.91089 15.2982 8.91086 15.2982L0.915711 10.6463L0.915565 10.6463C0.782908 10.5697 0.716645 10.4361 0.716672 10.3017V10.3017V3.77594Z" fill="url(#paint0_linear)" stroke="#2D7DD2" stroke-width="0.1"/>
<path d="M14.7928 5.1574L14.793 5.15748C15.0582 5.3106 15.0582 5.69336 14.793 5.84648L9.8231 8.71582C9.54091 8.87875 9.19325 8.87875 8.91106 8.71582L0.915947 4.06393L0.915803 4.06385C0.65062 3.91073 0.65062 3.52797 0.915803 3.37485L5.88568 0.505509C6.16785 0.34259 6.51549 0.342582 6.79763 0.505478C6.79765 0.505488 6.79767 0.505498 6.79768 0.505507L14.7928 5.1574Z" fill="url(#paint1_linear)" stroke="#2D7DD2" stroke-width="0.1"/>
<path d="M0.960665 3.45156L0.961008 3.45136L5.98666 0.554222C5.98671 0.554192 5.98676 0.554162 5.98682 0.554132C6.25924 0.400038 6.53853 0.45163 6.82413 0.613231C6.8242 0.613271 6.82427 0.61331 6.82434 0.613349L14.6881 5.16607L14.6885 5.16631C14.8234 5.24264 14.9012 5.36494 14.9141 5.48299C14.9267 5.59895 14.8775 5.71534 14.7477 5.78883L14.7472 5.7891L9.95854 8.56772C9.95841 8.56779 9.95827 8.56787 9.95813 8.56795C9.69588 8.71359 9.51223 8.7655 9.36172 8.76422C9.21197 8.76295 9.0881 8.70907 8.94339 8.62719C8.9433 8.62714 8.94321 8.62709 8.94312 8.62704L1.01807 4.03059L1.01807 4.03059L1.01762 4.03033C0.880736 3.95286 0.805184 3.84056 0.793168 3.73527C0.781491 3.63295 0.828482 3.52637 0.960665 3.45156Z" stroke="white" stroke-opacity="0.3" stroke-width="0.1"/>
<path d="M5.34031 12.7374L5.22112 12.6686C5.17471 12.6418 5.14612 12.5923 5.14612 12.5387V7.41508C5.14612 7.29961 5.27112 7.22744 5.37112 7.28517L5.4903 7.35399C5.53671 7.38078 5.5653 7.4303 5.5653 7.48389V12.6075C5.5653 12.723 5.44031 12.7951 5.34031 12.7374Z" fill="#60B5FC" stroke="#2D7DD2" stroke-width="0.1"/>
<path d="M8.2612 14.3372V9.21353C8.2612 9.09807 8.3862 9.0259 8.4862 9.08363L8.66014 9.18405C8.70655 9.21085 8.73514 9.26037 8.73514 9.31396V14.4376C8.73514 14.5531 8.61014 14.6252 8.51014 14.5675L8.3362 14.4671C8.28979 14.4403 8.2612 14.3908 8.2612 14.3372Z" fill="#60B5FC" stroke="#2D7DD2" stroke-width="0.1"/>
<path d="M6.18445 13.1381V8.0145C6.18445 7.89903 6.30945 7.82686 6.40945 7.8846L6.52863 7.95341C6.57504 7.98021 6.60363 8.02973 6.60363 8.08332V13.2069C6.60363 13.3224 6.47863 13.3946 6.37863 13.3368L6.25944 13.268C6.21303 13.2412 6.18445 13.1917 6.18445 13.1381Z" fill="#60B5FC" stroke="#2D7DD2" stroke-width="0.1"/>
<path d="M4.30191 12.1379L4.18272 12.0691C4.13631 12.0423 4.10772 11.9927 4.10772 11.9392V6.81553C4.10772 6.70006 4.23273 6.62789 4.33273 6.68563L4.45191 6.75444C4.49832 6.78123 4.52691 6.83075 4.52691 6.88434V12.008C4.52691 12.1234 4.40191 12.1956 4.30191 12.1379Z" fill="#60B5FC" stroke="#2D7DD2" stroke-width="0.1"/>
<path d="M7.22282 13.7376V8.61403C7.22282 8.49857 7.34782 8.4264 7.44782 8.48413L7.567 8.55293C7.61341 8.57973 7.64201 8.62925 7.64201 8.68284V13.8065C7.64201 13.9219 7.51701 13.9941 7.41701 13.9364L7.29782 13.8675C7.25141 13.8408 7.22282 13.7912 7.22282 13.7376Z" fill="#60B5FC" stroke="#2D7DD2" stroke-width="0.1"/>
<path d="M3.31855 6.10012L3.41355 6.15497C3.45996 6.18177 3.48855 6.23129 3.48855 6.28488V11.4085C3.48855 11.524 3.36355 11.5962 3.26355 11.5384L3.16855 11.4836C3.12214 11.4568 3.09355 11.4073 3.09355 11.3537V6.23002C3.09355 6.11455 3.21855 6.04238 3.31855 6.10012Z" fill="#60B5FC" stroke="#2D7DD2" stroke-width="0.1"/>
<path d="M1.24946 4.89833L1.34449 4.95319C1.3909 4.97999 1.41949 5.02951 1.41949 5.0831V10.2067C1.41949 10.3222 1.29449 10.3944 1.19449 10.3366L1.09946 10.2818C1.05305 10.255 1.02446 10.2054 1.02446 10.1519V5.02823C1.02446 4.91276 1.14946 4.84059 1.24946 4.89833Z" fill="#60B5FC" stroke="#2D7DD2" stroke-width="0.1"/>
<path d="M2.22522 10.9222L2.10603 10.8534C2.05962 10.8266 2.03103 10.7771 2.03103 10.7235V5.59989C2.03103 5.48442 2.15603 5.41225 2.25603 5.46999L2.37522 5.5388C2.42163 5.5656 2.45022 5.61511 2.45022 5.6687V10.7923C2.45022 10.9078 2.32522 10.98 2.22522 10.9222Z" fill="#60B5FC" stroke="#2D7DD2" stroke-width="0.1"/>
<path d="M1.24184 4.88442L1.33685 4.93927C1.38326 4.96607 1.41184 5.01559 1.41184 5.06918V10.1928C1.41184 10.3083 1.28684 10.3805 1.18684 10.3227L1.09184 10.2679C1.04543 10.2411 1.01684 10.1916 1.01684 10.138V5.01433C1.01684 4.89885 1.14184 4.82669 1.24184 4.88442Z" fill="#60B5FC" stroke="#2D7DD2" stroke-width="0.1"/>
<path d="M10.104 9.15512L11.8622 8.13592C12.0289 8.03931 12.2376 8.15956 12.2376 8.35221V13.2442C12.2376 13.3334 12.1901 13.4158 12.113 13.4605L10.3547 14.4797C10.1881 14.5763 9.97937 14.456 9.97937 14.2634V9.37141C9.97937 9.28225 10.0269 9.19984 10.104 9.15512Z" fill="#3D90E9" stroke="#2D7DD2" stroke-width="0.1"/>
<path d="M12.5617 12.7676V7.87504C12.5617 7.78574 12.6093 7.70322 12.6866 7.65856L14.2208 6.77243C14.3874 6.67616 14.5958 6.79644 14.5958 6.98891V11.8815C14.5958 11.9708 14.5482 12.0533 14.4709 12.098L12.9367 12.9841C12.7701 13.0804 12.5617 12.9601 12.5617 12.7676Z" fill="#3D90E9" stroke="#2D7DD2" stroke-width="0.1"/>
<path d="M11.9257 11.2154L11.9257 11.2154L12.9008 10.6524C12.9606 10.6179 13.0108 10.5572 13.0458 10.4902C13.0811 10.4229 13.1036 10.3442 13.1036 10.2693C13.1036 10.1955 13.0813 10.1293 13.0317 10.0918C12.979 10.0519 12.9118 10.0563 12.8508 10.0915L12.8508 10.0915L11.8757 10.6544L11.8757 10.6544C11.8159 10.689 11.7657 10.7497 11.7307 10.8167C11.6954 10.884 11.6729 10.9627 11.6729 11.0376C11.6729 11.1114 11.6952 11.1776 11.7448 11.2151C11.7976 11.255 11.8647 11.2506 11.9257 11.2154Z" fill="#E6E6E8" stroke="#C8C8C8" stroke-width="0.1"/>
</g>
</g>
<defs>
<filter id="filter0_d" x="-0.333328" y="-0.366687" width="16.3752" height="17.1371" filterUnits="userSpaceOnUse" color-interpolation-filters="sRGB">
<feFlood flood-opacity="0" result="BackgroundImageFix"/>
<feColorMatrix in="SourceAlpha" type="matrix" values="0 0 0 0 0 0 0 0 0 0 0 0 0 0 0 0 0 0 127 0"/>
<feOffset dy="0.3"/>
<feGaussianBlur stdDeviation="0.5"/>
<feColorMatrix type="matrix" values="0 0 0 0 0 0 0 0 0 0 0 0 0 0 0 0 0 0 0.2 0"/>
<feBlend mode="normal" in2="BackgroundImageFix" result="effect1_dropShadow"/>
<feBlend mode="normal" in="SourceGraphic" in2="effect1_dropShadow" result="shape"/>
</filter>
<linearGradient id="paint0_linear" x1="8.8936" y1="9.5949" x2="10.3116" y2="9.5949" gradientUnits="userSpaceOnUse">
<stop stop-color="#3D90E9"/>
<stop offset="1" stop-color="#5FB4FC"/>
</linearGradient>
<linearGradient id="paint1_linear" x1="7.8544" y1="0.333313" x2="7.8544" y2="8.88801" gradientUnits="userSpaceOnUse">
<stop stop-color="#B4DDFF"/>
<stop offset="1" stop-color="#5CB6FF"/>
</linearGradient>
<clipPath id="clip0">
<rect width="16" height="16" fill="white"/>
</clipPath>
</defs>
</svg>
