<svg width="16" height="16" viewBox="0 0 16 16" fill="none" xmlns="http://www.w3.org/2000/svg">
<path d="M13.0011 11.7583C12.3696 12.1256 11.6109 12.4323 10.6997 12.6393L10.6996 12.6393C10.68 12.6437 10.6603 12.648 10.6408 12.6521C10.6391 12.6955 10.6379 12.7559 10.6395 12.8271C10.6428 12.9765 10.6583 13.17 10.7058 13.3533C10.7537 13.5384 10.831 13.7009 10.9487 13.8021L13.0011 11.7583ZM13.0011 11.7583C12.8315 12.1663 12.6221 12.6124 12.3873 12.9935C12.2423 13.2288 12.0895 13.4363 11.9325 13.5942C11.7747 13.7529 11.6192 13.8549 11.4697 13.8909L13.0011 11.7583Z" fill="#60B8FF" stroke="#3CA8FF" stroke-width="0.2"/>
<path d="M13.001 11.7583C12.3696 12.1256 11.6109 12.4323 10.6997 12.6393L10.6996 12.6393C10.6801 12.6437 10.6604 12.648 10.641 12.6521C10.641 12.6521 10.641 12.6522 10.641 12.6523C10.6391 12.6994 10.6379 12.7666 10.6401 12.846C10.6439 12.9804 10.6578 13.1465 10.6949 13.308C11.4282 13.1383 12.0572 12.9028 12.5972 12.6244C12.7477 12.3399 12.8839 12.0399 13.001 11.7583Z" fill="#22A7FF" stroke="#22A7FF" stroke-width="0.2"/>
<path d="M2.74809 7.13883L2.64411 7.14988C2.08382 7.20944 1.64998 7.07294 1.31155 6.83816C0.971022 6.60193 0.721672 6.26227 0.540468 5.90886C0.359424 5.55575 0.248877 5.19372 0.183628 4.91898C0.166891 4.8485 0.153172 4.78394 0.142033 4.72694C0.222443 4.78993 0.322619 4.86253 0.43652 4.9327C0.731395 5.11437 1.13916 5.29287 1.53896 5.21698L2.74809 7.13883ZM2.74809 7.13883L2.75449 7.24321C2.84119 8.65771 3.51287 10.2547 4.81184 11.3489C6.10727 12.4401 8.03589 13.039 10.6552 12.4443C13.2703 11.8505 14.5776 10.4243 15.2342 9.15167C15.5633 8.51376 15.7297 7.91259 15.8138 7.47111C15.8558 7.25046 15.8772 7.07002 15.8881 6.94525C15.8935 6.88287 15.8964 6.83445 15.8978 6.8019C15.8985 6.78563 15.8989 6.77334 15.8991 6.76526L15.8992 6.75984M2.74809 7.13883L15.8992 6.75984M15.8992 6.75984L15.8985 6.75371C15.8974 6.74516 15.8956 6.73228 15.8932 6.71535C15.8884 6.68149 15.8807 6.63144 15.8695 6.56752C15.8471 6.43966 15.8106 6.25645 15.7545 6.03637C15.6422 5.59579 15.4517 5.00957 15.1391 4.42439C14.5147 3.25507 13.4103 2.1 11.4697 2.1C10.2995 2.1 9.45439 2.40187 8.82384 2.85569C8.192 3.31042 7.7682 3.92309 7.45039 4.55652C7.21968 5.01634 7.04763 5.48048 6.89108 5.9028C6.83093 6.06508 6.77307 6.22118 6.71504 6.36849C6.61166 6.63095 6.50706 6.86685 6.38786 7.05225C6.26897 7.23717 6.12846 7.38313 5.94838 7.44927C5.31392 7.68228 4.81982 7.54955 4.4853 7.35485C4.31943 7.2583 4.19382 7.14726 4.10956 7.06031C4.06735 7.01675 4.03528 6.97899 4.01349 6.95173C4.00259 6.93809 3.99424 6.92706 3.98847 6.9192L3.98172 6.90987L3.9798 6.90713L3.9792 6.90626L3.97898 6.90595L3.9789 6.90583C3.97887 6.90578 3.97884 6.90573 4.06146 6.8494L3.97884 6.90573L3.93089 6.83542L3.99259 6.77689L3.9926 6.77688L3.99263 6.77685L3.99275 6.77673L3.9936 6.77592L3.99741 6.77222L4.01304 6.75673C4.02684 6.74286 4.04717 6.722 4.07267 6.69464C4.12368 6.63991 4.19524 6.55929 4.27647 6.45669C4.43922 6.25113 4.63927 5.95922 4.79111 5.61208C5.07211 4.96965 5.18689 4.14468 4.59832 3.31693C4.57922 3.43342 4.5477 3.58128 4.49596 3.73738C4.37981 4.08778 4.15367 4.50297 3.71286 4.67306M15.8992 6.75984L2.78177 5.6364L2.86098 5.57536M3.71286 4.67306C3.71286 4.67306 3.71287 4.67306 3.71287 4.67306L3.67686 4.57977L3.71286 4.67306ZM3.71286 4.67306C3.38814 4.79842 3.20017 5.02706 3.09235 5.22714C3.03838 5.32732 3.00495 5.41961 2.98511 5.48653C2.97521 5.51992 2.96875 5.54679 2.96484 5.5649C2.96288 5.57395 2.96156 5.58079 2.96076 5.58514L2.95995 5.58977L2.95984 5.59043L2.86098 5.57536M2.86098 5.57536L2.95983 5.59051L2.95982 5.59057L2.95981 5.59061L2.9598 5.59065L2.92457 5.82172L2.78192 5.63659L2.78191 5.63657L2.78187 5.63652L2.78182 5.63647L2.86098 5.57536Z" fill="#8BCAFF" stroke="#54AFFB" stroke-width="0.2"/>
<path d="M0.202717 4.77305C0.181468 4.75717 0.161242 4.74166 0.14212 4.72669C0.153267 4.78373 0.166995 4.84835 0.183748 4.9189C0.248997 5.19364 0.359544 5.55567 0.540588 5.90877C0.721791 6.26219 0.971141 6.60185 1.31167 6.83808C1.6501 7.07286 2.08394 7.20936 2.64423 7.1498L2.6548 7.14868C2.64715 7.11002 2.6399 7.07141 2.63306 7.03286C2.58063 6.73774 2.34708 6.51064 2.05079 6.46646L2.06554 6.36756L2.05079 6.46646C1.02847 6.314 0.484571 5.48224 0.202717 4.77305ZM4.9879 10.8683C3.88848 10.064 3.17113 8.92856 2.81383 7.77584C3.01733 9.04553 3.67388 10.3902 4.81196 11.3488C6.10739 12.44 8.03601 13.0389 10.6553 12.4442C13.2704 11.8504 14.5777 10.4242 15.2343 9.15159C15.3545 8.91861 15.453 8.69053 15.5337 8.47334C14.8428 9.78406 13.3822 11.1819 10.6991 11.7665C8.22139 12.329 6.32633 11.8475 4.9879 10.8683Z" fill="#60B8FF" stroke="#42A9FD" stroke-width="0.2"/>
<path d="M15.2344 9.1516C15.4493 8.73498 15.5948 8.33403 15.6934 7.983C15.4888 8.46461 15.1913 8.98566 14.7611 9.48978C13.9542 10.4352 12.685 11.3156 10.6996 11.7664C8.73314 12.2129 7.13338 12.0017 5.88637 11.4047C5.46071 11.3417 5.02358 11.2504 4.57138 11.1331C5.86533 12.3596 7.87033 13.0765 10.6554 12.4442C13.2705 11.8504 14.5778 10.4242 15.2344 9.1516Z" fill="#FFDCA7" stroke="#FFCA7A" stroke-width="0.2"/>
<path d="M15.8764 7.06348C15.791 7.15729 15.6803 7.26819 15.547 7.37921C15.2088 7.66075 14.716 7.95022 14.1169 7.95022V7.95025L14.1142 7.95018C13.3528 7.93011 12.6552 7.80082 12.2055 7.40891C12.2066 7.4653 12.2066 7.52901 12.2046 7.59897C12.1964 7.88574 12.1555 8.2793 12.0241 8.70613C11.7604 9.56292 11.1325 10.5505 9.68876 11.0737C8.07318 11.6592 6.45311 11.6221 4.57153 11.1331C5.8655 12.3595 7.87056 13.0765 10.6554 12.4441L10.6775 12.5416L10.6554 12.4441C13.2705 11.8504 14.5778 10.4242 15.2344 9.15158C15.5635 8.51368 15.7299 7.91252 15.814 7.47103C15.8442 7.31252 15.8637 7.17476 15.8764 7.06348Z" fill="#FFE9C8" stroke="#FFD699" stroke-width="0.2"/>
<path d="M11.2278 9.82913C11.3671 12.8989 8.55782 15.0497 7.79834 14.5502C7.18927 14.1498 8.71025 12.4688 8.31985 10.6147" fill="#8BCAFF"/>
<path d="M10.8751 11.5974C10.4781 12.2789 9.97787 12.8332 9.48912 13.2208C9.15186 13.4882 8.81647 13.6791 8.52044 13.7762C8.26961 13.8585 8.03002 13.8785 7.84305 13.8002C7.79058 13.965 7.75768 14.1025 7.7531 14.2135C7.74766 14.3449 7.7818 14.4197 7.85322 14.4667L7.85324 14.4667C7.97935 14.5496 8.21038 14.5462 8.52519 14.4129C8.83224 14.283 9.19002 14.0408 9.54138 13.7024C10.0728 13.1906 10.5815 12.4663 10.8751 11.5974Z" fill="#60B8FF" stroke="#38A6FF" stroke-width="0.2"/>
<path d="M12.3454 5.30859C12.3454 5.65245 12.1286 5.9218 11.852 5.9218C11.5753 5.9218 11.3587 5.65245 11.3587 5.30859C11.3587 4.96473 11.5753 4.69537 11.852 4.69537C12.1286 4.69525 12.3454 4.96473 12.3454 5.30859Z" fill="#2D2B2B"/>
</svg>
